<svg xmlns="http://www.w3.org/2000/svg" viewBox="0 0 24 24" fill="#bdc3c7"><path d="M12 2C8 2 4 5 4 9C4 11.4 5.2 13.5 7 14.9V17C7 17.6 7.4 18 8 18H9V20C9 21.1 9.9 22 11 22H13C14.1 22 15 21.1 15 20V18H16C16.6 18 17 17.6 17 17V14.9C18.8 13.5 20 11.4 20 9C20 5 16 2 12 2M12 4C15.3 4 18 6.2 18 9C18 10.9 16.9 12.6 15.2 13.5C14.8 13.7 14.5 14 14.5 14.5V16H9.5V14.5C9.5 14 9.2 13.7 8.8 13.5C7.1 12.6 6 10.9 6 9C6 6.2 8.7 4 12 4M9 8C9.6 8 10 8.4 10 9S9.6 10 9 10 8 9.6 8 9 8.4 8 9 8M15 8C15.6 8 16 8.4 16 9S15.6 10 15 10 14 9.6 14 9 14.4 8 15 8Z" /></svg>
