<?xml version="1.0" encoding="UTF-8"?>
<svg version="1.1" xmlns="http://www.w3.org/2000/svg" width="212" height="212">
<path d="" fill="#4E3438" transform="translate(0,0)"/>
<path d="M16 18 C15.41286004 18.4645245 14.82572008 18.929049 14.220788 19.40764999 C10.10039291 23.08979557 9.56213757 26.51571945 9.2515564 31.93809509 C9.19812179 34.80626771 9.22459115 37.67049842 9.25537109 40.53881836 C9.25051075 42.12291926 9.24306773 43.70701401 9.23324585 45.29109192 C9.21447931 49.58066349 9.23323421 53.86931821 9.25991011 58.15881801 C9.2825981 62.65540441 9.27431945 67.15194761 9.27041626 71.64857483 C9.26865196 79.20003168 9.29077565 86.75112891 9.32763672 94.30249023 C9.36995467 103.02142893 9.3769942 111.7398407 9.3645128 120.45886129 C9.35310494 128.85933353 9.36444189 137.25962101 9.38685989 145.6600666 C9.39612633 149.22887161 9.39791069 152.79756314 9.3936882 156.36637688 C9.38990795 160.57318876 9.40623949 164.77946794 9.43780899 168.98615837 C9.44626081 170.5259989 9.44801862 172.06589365 9.44242859 173.60574722 C9.41373082 182.92842586 9.71632561 189.88722734 15.9375 197.3125 C20.59188353 201.12063198 23.7427074 202.37506892 29.81388855 202.3742218 C30.82273392 202.38018341 30.82273392 202.38018341 31.85196 202.38626546 C34.09838252 202.39586552 36.34417164 202.38408497 38.59057617 202.37231445 C40.20381403 202.37474311 41.81705039 202.37846316 43.43028259 202.38337708 C47.8060948 202.39277729 52.18168301 202.38336919 56.55747771 202.37004495 C61.13429151 202.35872845 65.71109432 202.36283796 70.28791809 202.36479187 C77.97054709 202.36567451 85.6530878 202.35459841 93.33569336 202.33618164 C102.22614494 202.31499189 111.11646739 202.3115091 120.00693911 202.3177436 C128.55367314 202.32343077 137.10036156 202.31780071 145.647089 202.30657005 C149.28781284 202.30191778 152.92850884 202.30105289 156.56923485 202.3031559 C160.85134893 202.30503449 165.13333086 202.29696817 169.41541481 202.2810955 C170.99004189 202.27684045 172.56468236 202.27601025 174.13931274 202.27878571 C176.2820427 202.28199053 178.42437349 202.27296944 180.56706238 202.26069641 C181.76811709 202.25864354 182.96917181 202.25659067 184.20662212 202.25447559 C187.13889452 202.28779831 187.13889452 202.28779831 189 200 C190.64991582 199.29289322 192.31562256 198.62056011 194 198 C194 197.34 194 196.68 194 196 C194.6244271 195.89898767 195.2488542 195.79797533 195.89220333 195.69390202 C198.38223002 195.1382583 198.38223002 195.1382583 199.7247467 191.89756775 C201.85781512 185.36379369 201.42663178 178.43358424 201.40405273 171.63891602 C201.40976192 170.08585114 201.4167283 168.53279046 201.42485046 166.97973633 C201.44273619 162.77926557 201.4416222 158.57900424 201.43590808 154.3785069 C201.43280965 150.86468449 201.43891592 147.35090192 201.44494683 143.83708519 C201.45897531 135.54426957 201.45744468 127.25155702 201.44604492 118.95874023 C201.43456444 110.41876216 201.44864195 101.87909815 201.4754414 93.33916146 C201.49762999 85.99197643 201.50422869 78.64488978 201.49836498 71.29767364 C201.49500186 66.91610593 201.49736749 62.53473952 201.51461601 58.15320015 C201.53013367 54.03179005 201.52607661 49.9108437 201.50731087 45.7894516 C201.50363831 44.28225986 201.50669439 42.77503339 201.51719666 41.26787376 C201.57703156 31.96666105 201.41399747 24.33878735 195.29315186 16.93554497 C188.55943857 10.54367784 180.76884986 11.014003 172.05053711 11.11010742 C170.44642985 11.10224818 168.8423349 11.09139908 167.23826599 11.07780457 C162.90327854 11.05028154 158.56949215 11.06658311 154.23453593 11.09265304 C149.6872278 11.11417977 145.13999985 11.10058117 140.59266663 11.09236145 C132.95896517 11.08421457 125.32574335 11.1048101 117.69213867 11.14233398 C108.8787119 11.18528232 100.06622482 11.18171848 91.25275987 11.1534664 C82.75719685 11.12739539 74.26198156 11.13526692 65.76642036 11.15816689 C62.15846858 11.16724469 58.55082346 11.16434925 54.94288445 11.15166283 C50.69151752 11.13818121 46.44125852 11.15446074 42.19005775 11.19330025 C40.63409624 11.20279587 39.07803398 11.20220829 37.5220871 11.19055939 C28.74363683 11.1318563 22.29819079 11.34572043 16 18 Z " fill="#D3443A" transform="translate(0,0)"/>
<path d="M0 0 C0.66209473 -0.00095673 1.32418945 -0.00191345 2.00634766 -0.00289917 C3.40852961 -0.00358076 4.8107147 -0.00172792 6.21289062 0.00244141 C8.36595713 0.00779004 10.51881502 0.0024958 12.671875 -0.00390625 C14.03125046 -0.00324546 15.3906258 -0.00196429 16.75 0 C18.61785156 0.00169189 18.61785156 0.00169189 20.5234375 0.00341797 C23.375 0.1328125 23.375 0.1328125 24.375 1.1328125 C24.28536938 2.82422906 24.12922324 4.51240852 23.9375 6.1953125 C23.83566406 7.11441406 23.73382813 8.03351562 23.62890625 8.98046875 C23.54511719 9.69074219 23.46132812 10.40101562 23.375 11.1328125 C24.179375 11.2771875 24.98375 11.4215625 25.8125 11.5703125 C28.375 12.1328125 28.375 12.1328125 29.375 13.1328125 C29.50037741 15.27589146 29.55074364 17.42360136 29.5625 19.5703125 C29.57667969 20.74464844 29.59085938 21.91898438 29.60546875 23.12890625 C29.375 26.1328125 29.375 26.1328125 27.375 28.1328125 C24.75 28.2578125 24.75 28.2578125 22.375 28.1328125 C22.41503055 32.23982027 22.41503055 32.23982027 23.375 36.1328125 C25.66480909 37.82264757 27.58934833 38.32244111 30.375 39.1328125 C30.375 39.7928125 30.375 40.4528125 30.375 41.1328125 C31.1071875 41.37902344 31.839375 41.62523437 32.59375 41.87890625 C41.56524049 45.92363722 46.80796585 55.07425288 50.4921875 63.76953125 C51.68454101 68.31208155 51.6271318 72.58391255 51.5625 77.2578125 C51.5615332 78.59779297 51.5615332 78.59779297 51.56054688 79.96484375 C51.53426695 83.87179277 51.45281783 87.35588079 50.375 91.1328125 C49.715 91.1328125 49.055 91.1328125 48.375 91.1328125 C48.271875 91.8134375 48.16875 92.4940625 48.0625 93.1953125 C46.57563867 99.54826546 44.31075469 103.85515843 39.375 108.1328125 C38.83230469 108.60460937 38.28960937 109.07640625 37.73046875 109.5625 C28.16839459 117.33294342 16.75281248 122.17070361 4.375 121.1328125 C-6.65967069 119.20664217 -17.76247162 114.25129849 -24.625 105.1328125 C-33.20245206 92.10145378 -36.05852922 79.27264685 -32.94140625 63.72265625 C-29.26741121 52.88360864 -21.44799869 43.99552741 -11.3125 38.6953125 C-8.71479617 37.43597941 -7.60510639 37.1328125 -4.625 37.1328125 C-4.625 34.1628125 -4.625 31.1928125 -4.625 28.1328125 C-6.605 28.1328125 -8.585 28.1328125 -10.625 28.1328125 C-12.11841703 25.14597843 -11.75675178 22.38881476 -11.75 19.0703125 C-11.75386719 17.16572266 -11.75386719 17.16572266 -11.7578125 15.22265625 C-11.625 12.1328125 -11.625 12.1328125 -10.625 11.1328125 C-8.95882885 11.09217418 -7.29111905 11.0900915 -5.625 11.1328125 C-5.955 10.5965625 -6.285 10.0603125 -6.625 9.5078125 C-7.86196723 6.57001533 -7.83556341 4.29126367 -7.625 1.1328125 C-5.74180732 -0.75038018 -2.50569863 0.00226965 0 0 Z " fill="#503438" transform="translate(97.625,44.8671875)"/>
<path d="M18 6 C17.21625 6.309375 16.4325 6.61875 15.625 6.9375 C10.19847834 9.13394924 8.36278683 11.68372963 6 17 C5.66909898 17.57378167 5.33819796 18.14756334 4.99726963 18.73873234 C1.0451219 26.12733289 1.42860978 33.77164673 1.46655273 41.91772461 C1.45948537 43.518578 1.45073693 45.11942471 1.44044495 46.72026062 C1.41803268 51.04681787 1.42087145 55.3730079 1.42976642 59.69960093 C1.4348936 63.32025819 1.42756974 66.94084749 1.42029434 70.56149775 C1.40332125 79.10705884 1.406835 87.65244125 1.42358398 96.19799805 C1.44050423 104.99536295 1.42466633 113.79223161 1.3923611 122.58954233 C1.36561737 130.16097988 1.35840205 137.73226341 1.36687618 145.30374342 C1.3717913 149.81782618 1.36966679 154.33161048 1.34908867 158.84565544 C1.33065602 163.09192866 1.33678194 167.33749123 1.36128807 171.58372688 C1.36627199 173.13564835 1.36286947 174.68762469 1.35013962 176.23950195 C1.26593208 187.39350465 2.66251688 195.65311741 10.5625 203.9375 C11.68068671 204.98854386 12.82690686 206.01061272 14 207 C14.55542984 207.51710006 15.11085968 208.03420012 15.68312073 208.56696987 C18.83592659 210.51703514 21.11937935 210.38599093 24.81616211 210.40113831 C25.50123337 210.40793498 26.18630463 210.41473164 26.89213562 210.42173427 C29.18735936 210.44072176 31.48205016 210.43826849 33.77734375 210.43579102 C35.42347399 210.44476812 37.0695979 210.45497625 38.7157135 210.46632385 C43.1893139 210.49284551 47.66274216 210.49985857 52.13641357 210.50177121 C54.93462919 210.50390406 57.7328011 210.5103098 60.53100586 210.51826286 C70.30308811 210.5460323 80.07504757 210.55826749 89.84716797 210.5559082 C98.93810442 210.55410948 108.02850471 210.58569046 117.11930561 210.63313919 C124.93524581 210.67247118 132.75101167 210.68845531 140.56704998 210.68654197 C145.23002133 210.68577956 149.89251711 210.69418954 154.5553894 210.72607613 C158.94856869 210.75529584 163.34082398 210.75523901 167.7340374 210.73352623 C169.33834635 210.73040946 170.94271456 210.73735334 172.54692268 210.7556076 C183.40132716 210.87102521 193.10732605 209.73770136 201.28979492 201.77042484 C209.18022078 192.81493304 208.29906025 181.49725993 208.29052734 170.23413086 C208.29652026 168.64974148 208.30332755 167.065355 208.31088257 165.48097229 C208.32846554 161.20009708 208.33323449 156.91930195 208.33451414 152.63839412 C208.33593992 149.960297 208.34021743 147.28221999 208.34550858 144.60412788 C208.36397867 135.25161581 208.3721824 125.89916057 208.37060547 116.54663086 C208.36940275 107.84246439 208.39053836 99.13854535 208.4220928 90.43444151 C208.44826751 82.94628709 208.45897236 75.45821348 208.45769465 67.97001368 C208.45718566 63.50408458 208.46283507 59.03837592 208.48405075 54.5724926 C208.50345508 50.37394169 208.50354283 46.17582121 208.48901749 41.97725487 C208.48693147 40.44060892 208.49161798 38.90393584 208.5037384 37.36733627 C208.57453833 27.76664203 208.34380405 20.66958935 201.5 13.3125 C200.675 12.549375 199.85 11.78625 199 11 C198.29875 10.113125 197.5975 9.22625 196.875 8.3125 C195.03438927 5.80846331 195.03438927 5.80846331 192 4 C188.82454404 3.69615816 188.82454404 3.69615816 185.12290955 3.74603271 C184.06762482 3.74135274 184.06762482 3.74135274 182.99102122 3.73657823 C180.62796273 3.72858553 178.26516012 3.7349267 175.90209961 3.74121094 C174.21034087 3.73850166 172.51858332 3.73494109 170.826828 3.73059082 C166.22781517 3.72145769 161.62889186 3.72501469 157.02987742 3.73134899 C152.22349346 3.73640338 147.41711729 3.73171918 142.61073303 3.72857666 C134.53954691 3.72493573 126.46839737 3.72973982 118.3972168 3.73925781 C109.05579192 3.75014629 99.71445432 3.74661444 90.37303156 3.735605 C82.36195818 3.72654014 74.35091112 3.7252428 66.33983427 3.73048234 C61.55102931 3.73360599 56.76226541 3.73400052 51.97346306 3.72740936 C47.47306147 3.72164803 42.97277284 3.72561044 38.4723835 3.73719788 C36.8171266 3.73985082 35.16186025 3.73906862 33.50660706 3.73467255 C31.25431031 3.7292406 29.00237995 3.73602215 26.75010681 3.74603271 C25.48745971 3.74678677 24.2248126 3.74754082 22.92390347 3.74831772 C19.87619178 3.69456828 19.87619178 3.69456828 18 6 Z " fill="#2B2929" transform="translate(0,0)"/>
<path d="M0 0 C21.09708072 -0.0935226 42.19412715 -0.16401806 63.29137325 -0.20724869 C73.08762996 -0.22785671 82.88375771 -0.25594363 92.67993164 -0.30175781 C101.22023261 -0.34167949 109.76044017 -0.36744561 118.30083185 -0.37635398 C122.82117025 -0.3815597 127.34124146 -0.39375826 131.86149406 -0.42292023 C136.12062692 -0.45017366 140.37938381 -0.45842505 144.63859558 -0.45243073 C146.19740406 -0.45352654 147.75622578 -0.46142127 149.31495857 -0.4768219 C157.71766503 -0.55573444 164.55501726 -0.20893718 172 4 C173.3921875 4.4640625 173.3921875 4.4640625 174.8125 4.9375 C179.4549264 7.19239282 181.45613327 11.51117359 183.3730911 16.11355805 C184.35594326 19.07107475 184.37466419 21.82852911 184.3742218 24.93136597 C184.37819621 25.59253233 184.38217061 26.25369869 184.38626546 26.9349004 C184.39582302 29.13114128 184.38411077 31.32672732 184.37231445 33.52294922 C184.37474464 35.10542032 184.37846615 36.68788988 184.38337708 38.27035522 C184.39276023 42.55561477 184.38338151 46.84064486 184.37004495 51.12588644 C184.35869945 55.61933505 184.36284045 60.11277287 184.36479187 64.60623169 C184.36567405 72.15337861 184.35461191 79.70043557 184.33618164 87.24755859 C184.31503054 95.95841366 184.31150137 104.66913685 184.3177436 113.38001239 C184.32345037 121.775089 184.31777514 130.17011942 184.30657005 138.56518936 C184.30193988 142.13035059 184.30104337 145.69548342 184.3031559 149.26064682 C184.30504791 153.4648359 184.29686513 157.66889194 184.2810955 161.87305069 C184.27687437 163.41087544 184.27598738 164.94871375 184.27878571 166.48654175 C184.31042243 186.99256565 184.31042243 186.99256565 178.9375 193.75 C178.41027344 194.44609375 177.88304687 195.1421875 177.33984375 195.859375 C168.94102909 203.54309859 160.49379484 203.72226687 149.59155273 203.64697266 C147.93819214 203.6537569 146.2848391 203.66266454 144.63150024 203.67352295 C140.16244011 203.69622545 135.69396014 203.68751813 131.22489047 203.67162752 C126.53744931 203.65892354 121.85005613 203.6707209 117.16261292 203.67855835 C109.29362108 203.68764095 101.42486431 203.67570262 93.5559082 203.65185547 C84.46993258 203.62463737 75.38451787 203.63346885 66.29855579 203.6609875 C58.48340328 203.68370595 50.66841924 203.68686557 42.85324436 203.67379415 C38.19169077 203.66601588 33.53040053 203.66491341 28.86886406 203.68147659 C24.48633164 203.69596237 20.10451986 203.68582521 15.72206497 203.65700531 C14.11771018 203.65041675 12.51329432 203.65225392 10.90896416 203.66331863 C-4.899304 203.7622607 -4.899304 203.7622607 -11 198 C-13 195.6875 -13 195.6875 -14 194 C-13.443125 194.28875 -12.88625 194.5775 -12.3125 194.875 C-9.91505355 196.0413253 -7.48403061 197.0339881 -5 198 C-4.505 197.01 -4.505 197.01 -4 196 C-3.67 196.33 -3.34 196.66 -3 197 C-0.87701237 197.10569436 1.24954872 197.13968933 3.37515259 197.14717102 C4.04893774 197.15084771 4.7227229 197.1545244 5.41692579 197.1583125 C7.69153228 197.16939095 9.96609316 197.17320023 12.24072266 197.17700195 C13.86496121 197.18326365 15.48919832 197.18991018 17.11343384 197.19691467 C21.53931831 197.21435598 25.96519195 197.2248857 30.39110231 197.2331202 C33.15557704 197.23826546 35.92004838 197.24434151 38.68452072 197.25063133 C47.33162206 197.26969515 55.97871482 197.28392176 64.62583315 197.2922433 C74.61098279 197.30201049 84.59591043 197.32831143 94.58098185 197.36874419 C102.29484992 197.39890869 110.00865441 197.41371263 117.72258031 197.41702431 C122.33113078 197.41937513 126.93944442 197.42833903 131.54793167 197.45348549 C135.88670319 197.476776 140.22508216 197.48099557 144.56389999 197.47072411 C146.15418046 197.47022881 147.74448029 197.47654742 149.33470154 197.49028015 C161.46106107 197.69719839 161.46106107 197.69719839 171.53314304 191.56443214 C178.38399763 184.25785936 177.56402393 175.36745626 177.50170898 166.0246582 C177.50549615 164.40599092 177.51099947 162.78732688 177.51808167 161.16867065 C177.53199839 156.79071022 177.52089475 152.41314444 177.50437045 148.03520608 C177.49048505 143.4477995 177.49698373 138.86041502 177.50050354 134.272995 C177.50320209 126.5737779 177.48975787 118.87471703 177.46655273 111.17553711 C177.43991687 102.27652025 177.43820621 93.37776405 177.4499411 84.47872096 C177.4607204 75.91008313 177.45453244 67.34153951 177.44038582 58.77290916 C177.4346302 55.12906859 177.43470529 51.48529704 177.43945122 47.84145546 C177.44422415 43.55266688 177.43410636 39.26416381 177.41249657 34.97542953 C177.40693387 33.40206426 177.40645867 31.82867153 177.41144943 30.25530434 C177.41740919 28.10704564 177.40488539 25.95965793 177.38768005 23.81147766 C177.38525016 22.60971044 177.38282026 21.40794321 177.38031673 20.1697588 C176.88289723 16.02400423 175.4235793 13.37046067 172.4296875 10.48828125 C171.91664063 10.10027344 171.40359375 9.71226563 170.875 9.3125 C168 7 168 7 167 5 C163.59213852 3.86404617 160.97005966 3.8608887 157.37519836 3.84178162 C156.69884895 3.83684364 156.02249954 3.83190566 155.32565469 3.82681805 C153.0547521 3.81143523 150.78387781 3.80308033 148.51293945 3.79467773 C146.88689932 3.78509982 145.26086168 3.77508979 143.63482666 3.76467896 C139.2157397 3.73761439 134.79664204 3.71661322 130.37751794 3.69667697 C125.76103272 3.674827 121.14458053 3.64743347 116.52812195 3.62062073 C107.78403759 3.57068046 99.03993491 3.52574658 90.29581469 3.48259836 C80.34186193 3.43323739 70.38794231 3.37831503 60.43402159 3.32291877 C39.95604526 3.20907825 19.4780373 3.10224371 -1 3 C-0.67 2.01 -0.34 1.02 0 0 Z " fill="#CC433A" transform="translate(24,6)"/>
<path d="M0 0 C1.66869141 -0.01836914 1.66869141 -0.01836914 3.37109375 -0.03710938 C11.31416092 -0.05114306 18.28961106 0.49504189 25.5625 3.8125 C33.89187259 7.1308416 45.35943362 5.6275944 54 4.1875 C54.30372936 12.19695568 54.50848663 18.87815285 51 26.1875 C50.34 26.1875 49.68 26.1875 49 26.1875 C48.835 26.868125 48.67 27.54875 48.5 28.25 C44.76604351 35.56233147 37.52560461 39.55636756 30 42.1875 C20.54137314 45.08299802 10.15764457 43.35786786 1.50390625 38.90234375 C-4.80947786 34.57851282 -10.61224289 27.32409825 -12.64453125 19.86328125 C-13.4653006 13.68496254 -13.38452181 7.39900608 -13 1.1875 C-10.45803196 -1.35446804 -3.4136715 0.00192428 0 0 Z " fill="#DE483A" transform="translate(86,112.8125)"/>
<path d="M0 0 C0.66209473 -0.00095673 1.32418945 -0.00191345 2.00634766 -0.00289917 C3.40852961 -0.00358076 4.8107147 -0.00172792 6.21289062 0.00244141 C8.36595713 0.00779004 10.51881502 0.0024958 12.671875 -0.00390625 C14.03125046 -0.00324546 15.3906258 -0.00196429 16.75 0 C18.61785156 0.00169189 18.61785156 0.00169189 20.5234375 0.00341797 C23.375 0.1328125 23.375 0.1328125 24.375 1.1328125 C24.28536938 2.82422906 24.12922324 4.51240852 23.9375 6.1953125 C23.83566406 7.11441406 23.73382813 8.03351562 23.62890625 8.98046875 C23.54511719 9.69074219 23.46132812 10.40101562 23.375 11.1328125 C24.179375 11.2771875 24.98375 11.4215625 25.8125 11.5703125 C28.375 12.1328125 28.375 12.1328125 29.375 13.1328125 C29.50037741 15.27589146 29.55074364 17.42360136 29.5625 19.5703125 C29.57667969 20.74464844 29.59085938 21.91898438 29.60546875 23.12890625 C29.375 26.1328125 29.375 26.1328125 27.375 28.1328125 C24.75 28.2578125 24.75 28.2578125 22.375 28.1328125 C22.41503055 32.23982027 22.41503055 32.23982027 23.375 36.1328125 C25.66480909 37.82264757 27.58934833 38.32244111 30.375 39.1328125 C30.375 39.7928125 30.375 40.4528125 30.375 41.1328125 C31.1071875 41.37902344 31.839375 41.62523437 32.59375 41.87890625 C41.56524049 45.92363722 46.80796585 55.07425288 50.4921875 63.76953125 C51.68454101 68.31208155 51.6271318 72.58391255 51.5625 77.2578125 C51.5615332 78.59779297 51.5615332 78.59779297 51.56054688 79.96484375 C51.53426695 83.87179277 51.45281783 87.35588079 50.375 91.1328125 C49.715 91.1328125 49.055 91.1328125 48.375 91.1328125 C48.271875 91.8134375 48.16875 92.4940625 48.0625 93.1953125 C46.57563867 99.54826546 44.31075469 103.85515843 39.375 108.1328125 C38.83230469 108.60460937 38.28960937 109.07640625 37.73046875 109.5625 C28.16839459 117.33294342 16.75281248 122.17070361 4.375 121.1328125 C-6.65967069 119.20664217 -17.76247162 114.25129849 -24.625 105.1328125 C-33.20245206 92.10145378 -36.05852922 79.27264685 -32.94140625 63.72265625 C-29.26741121 52.88360864 -21.44799869 43.99552741 -11.3125 38.6953125 C-8.71479617 37.43597941 -7.60510639 37.1328125 -4.625 37.1328125 C-4.625 34.1628125 -4.625 31.1928125 -4.625 28.1328125 C-6.605 28.1328125 -8.585 28.1328125 -10.625 28.1328125 C-12.11841703 25.14597843 -11.75675178 22.38881476 -11.75 19.0703125 C-11.75386719 17.16572266 -11.75386719 17.16572266 -11.7578125 15.22265625 C-11.625 12.1328125 -11.625 12.1328125 -10.625 11.1328125 C-8.95882885 11.09217418 -7.29111905 11.0900915 -5.625 11.1328125 C-5.955 10.5965625 -6.285 10.0603125 -6.625 9.5078125 C-7.86196723 6.57001533 -7.83556341 4.29126367 -7.625 1.1328125 C-5.74180732 -0.75038018 -2.50569863 0.00226965 0 0 Z M-7.625 16.1328125 C-7.625 18.4428125 -7.625 20.7528125 -7.625 23.1328125 C-5.315 23.7928125 -3.005 24.4528125 -0.625 25.1328125 C-0.13 32.0628125 -0.13 32.0628125 0.375 39.1328125 C-1.275 39.7928125 -2.925 40.4528125 -4.625 41.1328125 C-5.45 41.6278125 -6.275 42.1228125 -7.125 42.6328125 C-9.625 44.1328125 -9.625 44.1328125 -11.99609375 44.97265625 C-18.29950806 47.75440075 -23.29057503 53.66161248 -26.0625 59.8828125 C-26.60275954 61.29218521 -27.12360111 62.70915139 -27.625 64.1328125 C-27.97820312 64.90109375 -28.33140625 65.669375 -28.6953125 66.4609375 C-31.82342458 75.4509739 -29.93924476 85.65375284 -26.234375 94.125 C-21.73936432 102.52586947 -16.01250358 108.61072427 -7.625 113.1328125 C-7.02429688 113.47183594 -6.42359375 113.81085938 -5.8046875 114.16015625 C3.37752868 118.47301537 14.97700403 116.70836005 24.3984375 114.08203125 C25.05070312 113.76878906 25.70296875 113.45554687 26.375 113.1328125 C26.87 111.6478125 26.87 111.6478125 27.375 110.1328125 C28.07625 109.8853125 28.7775 109.6378125 29.5 109.3828125 C36.14950414 106.49172374 40.26779844 100.47150368 43.375 94.1328125 C43.375 93.4728125 43.375 92.8128125 43.375 92.1328125 C44.035 92.1328125 44.695 92.1328125 45.375 92.1328125 C47.69900089 83.85355933 49.14560028 73.44461333 46.375 65.1328125 C45.715 65.1328125 45.055 65.1328125 44.375 65.1328125 C44.2925 64.2665625 44.21 63.4003125 44.125 62.5078125 C42.65981675 55.91448786 38.66742966 51.96137864 33.375 48.1328125 C32.385 48.1328125 31.395 48.1328125 30.375 48.1328125 C30.313125 47.51664063 30.25125 46.90046875 30.1875 46.265625 C29.55976007 43.91445969 29.55976007 43.91445969 27.125 42.9375 C25.76375 42.47730469 25.76375 42.47730469 24.375 42.0078125 C19.46933962 40.32149175 19.46933962 40.32149175 18.375 38.1328125 C18.30383618 35.75878749 18.29090915 33.38280573 18.3125 31.0078125 C18.32152344 29.72648437 18.33054688 28.44515625 18.33984375 27.125 C18.35144531 26.13757813 18.36304688 25.15015625 18.375 24.1328125 C21.84 23.6378125 21.84 23.6378125 25.375 23.1328125 C25.375 20.8228125 25.375 18.5128125 25.375 16.1328125 C14.485 16.1328125 3.595 16.1328125 -7.625 16.1328125 Z " fill="#CC473B" transform="translate(97.625,44.8671875)"/>
<path d="M0 0 C21.09708072 -0.0935226 42.19412715 -0.16401806 63.29137325 -0.20724869 C73.08762996 -0.22785671 82.88375771 -0.25594363 92.67993164 -0.30175781 C101.22023261 -0.34167949 109.76044017 -0.36744561 118.30083185 -0.37635398 C122.82117025 -0.3815597 127.34124146 -0.39375826 131.86149406 -0.42292023 C136.12062692 -0.45017366 140.37938381 -0.45842505 144.63859558 -0.45243073 C146.19740406 -0.45352654 147.75622578 -0.46142127 149.31495857 -0.4768219 C159.18449528 -0.56950992 167.2361555 -0.24603532 174.875 6.5625 C175.57625 7.366875 176.2775 8.17125 177 9 C177.50448292 9.47873251 178.00896584 9.95746502 178.52873611 10.45070457 C184.73940491 16.99076911 183.41115962 27.046348 183.35644531 35.38037109 C183.3572371 36.93493769 183.35933714 38.48950409 183.36264038 40.04406738 C183.36775352 44.24616873 183.35428364 48.44802323 183.33711338 52.65008497 C183.32203556 57.05070343 183.32325052 61.45131926 183.32244873 65.85195923 C183.31876257 73.23419389 183.30382331 80.6163352 183.28125 87.99853516 C183.25231158 97.48180492 183.24201971 106.96499983 183.2375679 116.44830894 C183.23359296 124.60032968 183.22109586 132.75233408 183.20722103 140.90434313 C183.20311954 143.52693043 183.20019534 146.14951716 183.19742584 148.77210617 C183.19254153 152.88432804 183.1823529 156.99650427 183.16798782 161.10870361 C183.16345714 162.62044487 183.16062435 164.13219228 183.15958023 165.64393997 C183.1578402 167.70101715 183.14997267 169.7579793 183.14044189 171.81503296 C183.13746723 172.96794516 183.13449257 174.12085735 183.13142776 175.30870628 C183 178 183 178 182 180 C181.34 180 180.68 180 180 180 C179.67 180.66 179.34 181.32 179 182 C178.99853344 181.16031866 178.99706688 180.32063732 178.99555588 179.45551109 C178.95850432 159.0242534 178.89951151 138.59316182 178.81609726 118.1620388 C178.77628782 108.28168846 178.743905 98.40141799 178.72900391 88.52099609 C178.71599727 79.90921777 178.68905788 71.29761505 178.64538693 62.68593562 C178.62274988 58.12607578 178.60709066 53.5664327 178.60811615 49.00651169 C178.60886144 44.71363419 178.59096363 40.42123625 178.55883217 36.12848282 C178.5503208 34.55394426 178.54859166 32.979352 178.55419731 31.40480042 C178.5608406 29.25184143 178.54291204 27.10040684 178.51898193 24.94760132 C178.51529476 23.74373968 178.51160759 22.53987804 178.50780869 21.29953575 C177.71327763 16.13699386 174.95506983 12.35958969 170.8125 9.25 C168 7 168 7 167 5 C163.59213852 3.86404617 160.97005966 3.8608887 157.37519836 3.84178162 C156.69884895 3.83684364 156.02249954 3.83190566 155.32565469 3.82681805 C153.0547521 3.81143523 150.78387781 3.80308033 148.51293945 3.79467773 C146.88689932 3.78509982 145.26086168 3.77508979 143.63482666 3.76467896 C139.2157397 3.73761439 134.79664204 3.71661322 130.37751794 3.69667697 C125.76103272 3.674827 121.14458053 3.64743347 116.52812195 3.62062073 C107.78403759 3.57068046 99.03993491 3.52574658 90.29581469 3.48259836 C80.34186193 3.43323739 70.38794231 3.37831503 60.43402159 3.32291877 C39.95604526 3.20907825 19.4780373 3.10224371 -1 3 C-0.67 2.01 -0.34 1.02 0 0 Z " fill="#E7473C" transform="translate(24,6)"/>
<path d="M0 0 C22.20921311 -0.11676047 44.41837568 -0.20495251 66.62783337 -0.25906086 C76.93990013 -0.28485121 87.25177628 -0.32001769 97.5637207 -0.37719727 C106.55078915 -0.4270067 115.53771955 -0.45928496 124.52492219 -0.47044247 C129.28440423 -0.4769654 134.04349135 -0.49231336 138.80284691 -0.52865028 C143.28198339 -0.56257094 147.76056203 -0.57306096 152.23981476 -0.56553841 C153.88416639 -0.56691472 155.52853655 -0.57687091 157.17277718 -0.59602737 C159.41817262 -0.62090594 161.661462 -0.61492668 163.90690613 -0.60127258 C165.79151188 -0.60818603 165.79151188 -0.60818603 167.71419048 -0.61523914 C171.88557401 0.165816 173.39469991 1.72238685 176 5 C176 5.66 176 6.32 176 7 C176.61875 7.2475 177.2375 7.495 177.875 7.75 C180.49398016 9.29057656 180.93309081 10.17255364 182 13 C182.25447559 16.0550909 182.25447559 16.0550909 182.26069641 19.71141052 C182.26452196 20.38508653 182.26834751 21.05876254 182.27228898 21.75285298 C182.28260352 24.00906155 182.27862985 26.26501491 182.2746582 28.52124023 C182.27900553 30.13931514 182.28418875 31.75738798 182.29014587 33.37545776 C182.30354472 37.77006773 182.30411357 42.16459175 182.30158257 46.55921817 C182.30051349 50.22729914 182.30539462 53.89536267 182.310188 57.56343991 C182.32128619 66.21654154 182.32171879 74.86959977 182.31567383 83.52270508 C182.30963244 92.45115973 182.3219485 101.37945686 182.3432439 110.30788463 C182.36085321 117.97253374 182.36686233 125.63713267 182.36360615 133.30180126 C182.36179212 137.88000556 182.36444146 142.45809749 182.37832069 147.03628349 C182.39088358 151.34140452 182.38896961 155.64627975 182.37590981 159.95139694 C182.37354113 161.53121969 182.37628915 163.11105965 182.38453293 164.69086266 C182.39497783 166.84806305 182.3869188 169.00443528 182.3742218 171.16160583 C182.37438954 172.36856833 182.37455729 173.57553083 182.37473011 174.81906796 C181.96709667 178.27930304 181.00408694 180.18702426 179 183 C178.67 182.34 178.34 181.68 178 181 C178.4559972 180.14787949 178.4559972 180.14787949 178.92120647 179.27854443 C180.35131036 176.25798938 180.25477282 173.88225109 180.26069641 170.54328918 C180.26452196 169.89693675 180.26834751 169.25058432 180.27228898 168.58464545 C180.28260039 166.42068655 180.27863038 164.25699392 180.2746582 162.09301758 C180.27900588 160.54054519 180.28418922 158.98807496 180.29014587 157.43560791 C180.30354545 153.21840868 180.30411317 149.00129902 180.30158257 144.78408265 C180.30051288 141.26052749 180.30539652 137.73699045 180.310188 134.21343917 C180.32128785 125.89577835 180.32171879 117.57816269 180.31567383 109.26049805 C180.30964137 100.6911198 180.32192541 92.12190604 180.3432439 83.55255586 C180.36088772 76.18847828 180.36685662 68.82445291 180.36360615 61.46035498 C180.36179659 57.06534493 180.36439624 52.67045205 180.37832069 48.2754612 C180.39093866 44.13776293 180.3889176 40.00031968 180.37590981 35.86262512 C180.37355257 34.34898478 180.37624795 32.83532628 180.38453293 31.32170677 C180.77609133 19.70923547 180.77609133 19.70923547 177 9 C175.69099943 8.28674006 174.35252456 7.62681698 173 7 C171.84830558 5.96425559 171.84830558 5.96425559 170.67334461 4.90758705 C167.29877559 2.49963555 165.34578401 2.49276731 161.22648621 2.47860718 C160.55815602 2.47095608 159.88982584 2.46330499 159.20124322 2.45542204 C156.96871877 2.4348354 154.7372302 2.4427308 152.50463867 2.45068359 C150.90112865 2.44198627 149.29762695 2.43161893 147.69413757 2.41970825 C143.34270188 2.39293443 138.99161369 2.39177031 134.64011168 2.39683485 C131.00455124 2.39897527 127.36906097 2.38920475 123.73351556 2.37962401 C115.15358911 2.35743465 106.57383775 2.35655749 97.99389648 2.36865234 C89.15106723 2.38072648 80.30887487 2.35612444 71.46615428 2.31351221 C63.86764863 2.27824598 56.26934537 2.266283 48.67076093 2.27278769 C44.13537967 2.27640922 39.60045246 2.27118438 35.06514549 2.24335861 C30.79750593 2.21815515 26.53085613 2.22213149 22.26323128 2.24818039 C20.70079078 2.25290162 19.13828014 2.247479 17.5759201 2.23093414 C6.68035437 2.00294591 6.68035437 2.00294591 -2.44758987 7.35205841 C-2.95988522 7.89587914 -3.47218056 8.43969986 -4 9 C-4.97698349 9.79560333 -5.95396698 10.59120667 -6.96055603 11.41091919 C-10.8953328 16.5395131 -9.68172622 24.26397326 -9.63110352 30.42529297 C-9.63624479 32.0092448 -9.64352765 33.59319091 -9.65278625 35.17712402 C-9.67128522 39.47077329 -9.65837024 43.76380076 -9.63869596 48.05742407 C-9.62228985 52.55669196 -9.63112535 57.05592107 -9.63621521 61.5552063 C-9.64073491 69.11258858 -9.62487634 76.66972326 -9.59692383 84.22705078 C-9.56489562 92.95334323 -9.56487906 101.6791886 -9.5821386 110.40551269 C-9.59802817 118.8107746 -9.59125301 127.21587326 -9.57420158 135.62112808 C-9.56734478 139.1927337 -9.5683495 142.76420791 -9.57574654 146.33581161 C-9.58343362 150.54669337 -9.57120473 154.75706935 -9.54389763 158.96786499 C-9.53703713 160.50932439 -9.53689069 162.05083123 -9.54411316 163.59228897 C-9.63358942 175.95270856 -9.63358942 175.95270856 -3.67786503 186.5129528 C0.69585902 190.38926823 3.9586494 191.37628425 9.78938293 191.39872742 C10.45927409 191.40537424 11.12916525 191.41202107 11.81935614 191.41886932 C14.05656586 191.43747245 16.2932395 191.43489596 18.53051758 191.43237305 C20.13715366 191.44139188 21.74378286 191.4517194 23.35040283 191.46325684 C27.70742398 191.49083878 32.06431461 191.50011297 36.42141175 191.50611091 C40.97652501 191.51549146 45.53154065 191.5416946 50.08659363 191.56611633 C58.7101958 191.60979378 67.33377905 191.6383331 75.9574582 191.66143972 C85.77606499 191.6884847 95.59457364 191.73239665 105.41311038 191.77772844 C125.60868747 191.87059256 145.80429394 191.94226523 166 192 C166 192.33 166 192.66 166 193 C144.75531862 193.14024098 123.51071371 193.24600581 102.26566315 193.31087303 C92.40090957 193.34179434 82.53644382 193.38394184 72.671875 193.45263672 C64.07261889 193.5124916 55.47357125 193.55116169 46.87411261 193.56453097 C42.3218031 193.57234448 37.77008993 193.59067157 33.2179718 193.63438034 C28.92999264 193.67521788 24.64285334 193.68764679 20.35469818 193.67864609 C18.78415609 193.68029178 17.21358485 193.69216107 15.64321136 193.71523285 C1.31688231 193.91532438 1.31688231 193.91532438 -4.63152313 188.50980568 C-6.29533026 186.67416965 -7.73574659 184.92256489 -8.9375 182.75 C-9.31777344 182.08484375 -9.69804687 181.4196875 -10.08984375 180.734375 C-12.00500097 177.08489085 -12.13446168 174.759031 -12.15390015 170.5737915 C-12.1582824 169.90661346 -12.16266465 169.23943542 -12.1671797 168.55203986 C-12.18058465 166.30584929 -12.18675035 164.05969797 -12.19287109 161.81347656 C-12.20077076 160.20717185 -12.20903962 158.60086892 -12.21765137 156.99456787 C-12.24388822 151.70993753 -12.25918112 146.4252992 -12.2734375 141.140625 C-12.27879659 139.32242579 -12.28417409 137.50422663 -12.28956985 135.68602753 C-12.31120144 128.12328402 -12.32993844 120.56054266 -12.34119225 112.99777603 C-12.35743286 102.15452033 -12.39061005 91.31162291 -12.44759309 80.46850228 C-12.48628083 72.84719976 -12.50582357 65.2259931 -12.51111281 57.60459495 C-12.51476802 53.05136096 -12.52680695 48.49850895 -12.55921555 43.94538116 C-12.58927562 39.66070927 -12.59561558 35.37665088 -12.58383179 31.09189606 C-12.58361087 29.52053542 -12.59193079 27.9491465 -12.60948563 26.37788391 C-12.63218172 24.22923307 -12.62388394 22.08280613 -12.60800171 19.93414307 C-12.61131186 18.73287907 -12.614622 17.53161507 -12.61803246 16.29394913 C-11.78305843 11.84375894 -10.16275979 10.20871045 -7 7 C-5.33675599 5.99431758 -3.67063747 4.99335201 -2 4 C-0.84919204 1.96976006 -0.84919204 1.96976006 0 0 Z " fill="#85393A" transform="translate(20,10)"/>
<path d="M0 0 C1.09976808 3.55014638 1.12053345 6.83796656 1.11352539 10.54177856 C1.11367425 11.19715351 1.11382311 11.85252846 1.11397648 12.52776325 C1.11328249 14.72182942 1.10544259 16.91581167 1.09765625 19.10986328 C1.09573698 20.68354241 1.09427322 22.25722215 1.0932312 23.8309021 C1.09007054 27.21832536 1.08380256 30.60572368 1.07516479 33.99313736 C1.06165394 39.34559188 1.05575092 44.69803809 1.05102539 50.05050659 C1.03992245 61.40868215 1.02037901 72.76683787 1 84.125 C0.97799813 96.39307461 0.95742057 108.66114117 0.94658184 120.92923152 C0.94158793 126.2541833 0.93171151 131.57909735 0.91815186 136.9040339 C0.910714 140.21026434 0.90738101 143.51648952 0.9051857 146.8227272 C0.90330726 148.36027335 0.89969365 149.89781847 0.89425278 151.43535614 C0.8870795 153.5276583 0.8859971 155.61987643 0.88647461 157.71218872 C0.884254 158.88504488 0.88203339 160.05790104 0.87974548 161.26629829 C0.81242298 163.96440765 0.81242298 163.96440765 2 166 C2.33 112.87 2.66 59.74 3 5 C3.33 5 3.66 5 4 5 C4.00054477 5.81630103 4.00108953 6.63260206 4.00165081 7.47363949 C4.01663169 27.35518229 4.0591314 47.23650119 4.13209057 67.11791897 C4.16671297 76.73252831 4.19209248 86.34699469 4.19555664 95.96166992 C4.19860036 104.34387458 4.21914563 112.72582444 4.26052457 121.10793072 C4.2818193 125.54441789 4.29447339 129.98054315 4.28615379 134.41708183 C4.2785912 138.59760984 4.29452528 142.77740589 4.32806015 146.95779991 C4.33626696 148.48753961 4.33607465 150.01735246 4.32659721 151.54708481 C4.27400991 160.97233025 4.94332105 168.22863315 11.35289288 175.54410458 C15.72763548 179.41098587 18.98280737 180.37546516 24.80715942 180.38095093 C25.81494644 180.38797089 25.81494644 180.38797089 26.8430928 180.39513266 C29.08716692 180.4070683 31.33062873 180.39763159 33.57470703 180.38818359 C35.18632361 180.39224987 36.79793739 180.39759207 38.4095459 180.40411377 C42.78128225 180.41778436 47.1528061 180.41249039 51.52454615 180.40297651 C56.09822824 180.3953812 60.67189214 180.40242493 65.24557495 180.40713501 C72.92400379 180.41259183 80.60234603 180.40540172 88.28076172 180.39111328 C97.16327503 180.37477528 106.04558188 180.38008389 114.92809021 180.3965925 C122.551972 180.41019561 130.17579155 180.41213314 137.79968154 180.40427649 C142.35432374 180.39959499 146.9088688 180.39898842 151.46350479 180.40888596 C155.7432042 180.41753669 160.02263663 180.41156859 164.30230713 180.39420319 C165.87490266 180.39022868 167.44752058 180.39138882 169.02010727 180.39799118 C171.16264653 180.40615881 173.3043239 180.39594449 175.44680786 180.38095093 C176.64694078 180.37981985 177.84707371 180.37868877 179.0835743 180.37752342 C182.29571701 179.96172023 183.02704793 179.44696858 185 177 C186.33333333 176.66666667 187.66666667 176.33333333 189 176 C190.73026102 174.52109931 190.73026102 174.52109931 192 173 C192.66 173.33 193.32 173.66 194 174 C193.01 174.33 192.02 174.66 191 175 C190.67 175.99 190.34 176.98 190 178 C183.3557251 183.59851902 175.21989511 182.53360615 166.9987793 182.45410156 C165.36554492 182.45297234 163.73230852 182.45360841 162.09907532 182.45587158 C157.67782987 182.45701692 153.25702054 182.4335353 148.83587623 182.40557575 C144.20838127 182.38052394 139.58087567 182.37821684 134.95332336 182.37347412 C126.1939327 182.36105237 117.43474224 182.32824438 108.67543966 182.28807616 C98.7091287 182.24336332 88.74280821 182.22136771 78.7764219 182.20129442 C59.12385291 182.16123474 39.47145247 182.09533024 19.81902599 182.01117325 C18.2126923 182.00480652 16.60634632 182 15 182 C12.44916213 181.55360337 10.32216136 181.16108068 8 180 C11.32341096 183.87731279 15.28043919 185.80136137 20.33077049 186.38476086 C21.54938082 186.38936982 22.76799114 186.39397879 24.02352905 186.39872742 C24.70652529 186.40537424 25.38952153 186.41202107 26.09321463 186.41886932 C28.3687749 186.43743722 30.64380649 186.43489834 32.91943359 186.43237305 C34.5557733 186.44139403 36.19210625 186.45172208 37.82843018 186.46325684 C42.26183568 186.49081351 46.69511292 186.50010954 51.12859297 186.50611091 C55.76511172 186.51549803 60.4015348 186.54170171 65.03799438 186.56611633 C73.81385228 186.60977568 82.58969159 186.63832613 91.36562502 186.66143972 C101.35837398 186.68849439 111.35102665 186.73240576 121.34370685 186.77772844 C141.89575276 186.87056664 162.4478275 186.94225118 183 187 C183 187.33 183 187.66 183 188 C161.17270491 188.25737617 139.34566128 188.45113937 117.51715469 188.56993389 C107.38087377 188.62656781 97.24553762 188.70372715 87.10986328 188.82983398 C78.27177933 188.9397436 69.43437978 189.0105033 60.59563136 189.03497344 C55.91851578 189.04927041 51.24335747 189.08267542 46.56687164 189.16303062 C42.15690428 189.23818614 37.74968312 189.26063366 33.33913612 189.24418449 C31.72824182 189.24718947 30.11724748 189.26878975 28.50691032 189.31126022 C20.07199068 189.52264509 13.61748426 188.90900277 7.19525146 182.98445129 C-2.12999835 173.46505032 -2.58532102 164.7947955 -2.48583984 151.98706055 C-2.48798868 150.37647697 -2.49187078 148.76589492 -2.49734497 147.15531921 C-2.50699343 142.8043281 -2.49179444 138.45375076 -2.47143888 134.10280967 C-2.45380893 129.5429763 -2.45739403 124.98315457 -2.4581604 120.42329407 C-2.45629094 112.77293004 -2.43897013 105.12272527 -2.41162109 97.47241211 C-2.38011789 88.62735554 -2.36962704 79.7824729 -2.3710922 70.93736428 C-2.37244252 61.51252752 -2.35856991 52.08775777 -2.34019899 42.66294122 C-2.33593655 39.94861296 -2.3345167 37.23429552 -2.33372116 34.51996422 C-2.33171338 30.25912034 -2.31951283 25.99842266 -2.29938889 21.73762703 C-2.29354469 20.17351552 -2.29108698 18.60938719 -2.29224396 17.0452652 C-2.2932248 14.9121978 -2.28192065 12.77954044 -2.26742554 10.64653015 C-2.26407385 9.4525143 -2.26072216 8.25849844 -2.25726891 7.02830029 C-2.01032222 4.12150242 -1.52154358 2.45200869 0 0 Z " fill="#BE3D37" transform="translate(4,22)"/>
<path d="M0 0 C1.04498557 -0.00724325 1.04498557 -0.00724325 2.11108196 -0.01463282 C4.4273811 -0.0258349 6.74255915 -0.00863868 9.05880737 0.00863647 C10.72658587 0.00648891 12.3943629 0.0026087 14.06213379 -0.00286865 C18.57858819 -0.01253975 23.09464563 0.00271228 27.61105204 0.02303743 C32.34126216 0.04063809 37.07146058 0.0370828 41.80169678 0.03631592 C49.74228538 0.03818722 57.68272083 0.05552984 65.6232605 0.08285522 C74.80225986 0.11432583 83.98109169 0.12485056 93.16014111 0.12338412 C102.93754636 0.12203308 112.71488708 0.1359139 122.49227285 0.15427732 C125.30818648 0.15853862 128.1240897 0.15995949 130.94000626 0.16075516 C135.36415863 0.16276482 139.78817048 0.17498086 144.21227646 0.19508743 C145.8356312 0.20092634 147.45900211 0.20339041 149.08236694 0.20223236 C151.29838724 0.20124977 153.51401492 0.21257313 155.72998047 0.22705078 C156.96991823 0.23040247 158.209856 0.23375416 159.48736763 0.23720741 C165.07456722 0.67940131 168.62797213 2.73673053 172.73800659 6.49447632 C172.73800659 7.15447632 172.73800659 7.81447632 172.73800659 8.49447632 C173.35675659 8.78322632 173.97550659 9.07197632 174.61300659 9.36947632 C176.73800659 10.49447632 176.73800659 10.49447632 178.73800659 12.49447632 C178.73800659 13.81447632 178.73800659 15.13447632 178.73800659 16.49447632 C179.72800659 16.49447632 180.71800659 16.49447632 181.73800659 16.49447632 C183.20729687 19.43305687 182.87080564 22.03847744 182.87844849 25.32051086 C182.88141961 26.03064113 182.88439073 26.74077139 182.88745189 27.47242075 C182.8961581 29.86381759 182.89764874 32.25516448 182.8991394 34.64657593 C182.90376615 36.35626839 182.90879062 38.06595981 182.91418457 39.77565002 C182.92732282 44.4284768 182.93375609 49.08128914 182.93819523 53.73413157 C182.94112315 56.63845118 182.94522738 59.54276681 182.9496994 62.44708443 C182.96337698 71.52666485 182.97304283 80.60623623 182.97690129 89.68582624 C182.98138535 100.18091699 182.99894825 110.6758777 183.02790189 121.1709289 C183.04948532 129.27456111 183.05960375 137.37815664 183.06094241 145.48181731 C183.06199268 150.32603768 183.06794753 155.17013588 183.08576202 160.0143261 C183.10218551 164.56891229 183.10442624 169.1232837 183.09562302 173.67788887 C183.09484961 175.35208332 183.09923514 177.02628904 183.10908127 178.70045471 C183.12171032 180.98104839 183.11597416 183.26087086 183.10549927 185.54145813 C183.10696583 186.81923095 183.10843239 188.09700377 183.10994339 189.41349697 C182.73800659 192.49447632 182.73800659 192.49447632 181.3400383 194.42903996 C179.73800659 195.49447632 179.73800659 195.49447632 177.73800659 195.49447632 C177.44925659 196.09260132 177.16050659 196.69072632 176.86300659 197.30697632 C175.73800659 199.49447632 175.73800659 199.49447632 173.73800659 202.49447632 C173.07800659 202.16447632 172.41800659 201.83447632 171.73800659 201.49447632 C172.14792847 201.02139038 172.55785034 200.54830444 172.98019409 200.06088257 C173.51902222 199.39959351 174.05785034 198.73830444 174.61300659 198.05697632 C175.14667847 197.41889038 175.68035034 196.78080444 176.23019409 196.12338257 C180.94951844 187.89513053 180.03548727 177.90675518 180.02853394 168.72860718 C180.03452686 167.14421779 180.04133415 165.55983131 180.04888916 163.97544861 C180.06647213 159.6945734 180.07124108 155.41377827 180.07252073 151.13287044 C180.07394651 148.45477332 180.07822402 145.7766963 180.08351517 143.0986042 C180.10198526 133.74609213 180.11018899 124.39363689 180.10861206 115.04110718 C180.10740934 106.33694071 180.12854495 97.63302167 180.16009939 88.92891783 C180.1862741 81.4407634 180.19697896 73.9526898 180.19570124 66.46449 C180.19519225 61.9985609 180.20084166 57.53285224 180.22205734 53.06696892 C180.24146167 48.86841801 180.24154942 44.67029753 180.22702408 40.47173119 C180.22493806 38.93508524 180.22962457 37.39841216 180.241745 35.86181259 C180.3011775 27.80257626 180.18897941 21.44880927 175.73800659 14.49447632 C175.40605474 13.78760146 175.0741029 13.0807266 174.7320919 12.3524313 C173.87631121 10.32293615 173.87631121 10.32293615 171.73800659 9.49447632 C169.22183068 8.23638836 168.93314867 6.96443662 167.73800659 4.49447632 C164.25412627 3.33318288 161.53842012 3.36564305 157.86091614 3.36076355 C156.80563141 3.35736522 156.80563141 3.35736522 155.72902781 3.35389823 C153.36603736 3.34755598 151.00310423 3.34838772 148.6401062 3.34921265 C146.94834824 3.34622137 145.25659097 3.34281891 143.56483459 3.33903503 C138.96584743 3.33018947 134.36687886 3.32785674 129.76788402 3.32721925 C125.9330585 3.32627081 122.09823733 3.32259342 118.26341349 3.31904715 C109.22068122 3.31090113 100.17795891 3.30846312 91.13522339 3.30917358 C81.79380423 3.30977501 72.45244271 3.29921056 63.11103815 3.28342992 C55.09996961 3.2703768 47.08891996 3.26498872 39.07784086 3.26562899 C34.28902986 3.26588456 29.5002701 3.26300102 24.71146965 3.25245094 C20.2110774 3.2428069 15.71078578 3.24266521 11.21039009 3.24996758 C9.55512979 3.25101791 7.89986334 3.24862414 6.24461365 3.24260712 C3.99232656 3.23494746 1.7403923 3.2394914 -0.5118866 3.24723816 C-1.7745337 3.24669339 -3.03718081 3.24614862 -4.33808994 3.24558735 C-7.38586784 3.18862723 -7.38586784 3.18862723 -9.26199341 5.49447632 C-11.24555824 6.20855966 -13.24514778 6.88065374 -15.26199341 7.49447632 C-14.05612673 3.8768763 -12.51894677 3.06675969 -9.23228669 1.31250262 C-6.13050003 0.02470293 -3.33828554 -0.00293157 0 0 Z " fill="#693330" transform="translate(27.261993408203125,1.505523681640625)"/>
<path d="M0 0 C0 1.65 0 3.3 0 5 C0.969375 4.979375 1.93875 4.95875 2.9375 4.9375 C6 5 6 5 7 6 C7.12537741 8.14307896 7.17574364 10.29078886 7.1875 12.4375 C7.20167969 13.61183594 7.21585938 14.78617188 7.23046875 15.99609375 C7 19 7 19 5 21 C2.375 21.125 2.375 21.125 0 21 C0.04003055 25.10700777 0.04003055 25.10700777 1 29 C3.28980909 30.68983507 5.21434833 31.18962861 8 32 C8 32.66 8 33.32 8 34 C8.7321875 34.24621094 9.464375 34.49242187 10.21875 34.74609375 C19.19024049 38.79082472 24.43296585 47.94144038 28.1171875 56.63671875 C29.30954101 61.17926905 29.2521318 65.45110005 29.1875 70.125 C29.18685547 71.01832031 29.18621094 71.91164063 29.18554688 72.83203125 C29.15926695 76.73898027 29.07781783 80.22306829 28 84 C27.34 84 26.68 84 26 84 C25.896875 84.680625 25.79375 85.36125 25.6875 86.0625 C23.36630931 95.98031478 17.32786706 101.65031056 9 107 C8.34 107 7.68 107 7 107 C7 106.34 7 105.68 7 105 C6.01 104.01 6.01 104.01 5 103 C5.845625 102.505 6.69125 102.01 7.5625 101.5 C13.64111361 97.43798806 18.15717156 91.68900808 21 85 C21.66 85 22.32 85 23 85 C24.3300103 76.02243049 24.08788039 67.05168034 24 58 C23.34 58 22.68 58 22 58 C21.54625 56.9275 21.0925 55.855 20.625 54.75 C20.34527344 54.10804687 20.06554687 53.46609375 19.77734375 52.8046875 C19.21834923 51.50692134 18.69214824 50.19484925 18.1875 48.875 C15.75085543 45.02766648 12.27534631 42.42511544 8 41 C7.3125 38.9375 7.3125 38.9375 7 37 C6.38511719 36.90203125 5.77023438 36.8040625 5.13671875 36.703125 C4.32847656 36.55359375 3.52023438 36.4040625 2.6875 36.25 C1.88699219 36.11078125 1.08648437 35.9715625 0.26171875 35.828125 C-2.70870001 34.74051053 -3.55006046 33.81186358 -5 31 C-5.328125 27.58203125 -5.328125 27.58203125 -5.25 23.8125 C-5.22679687 21.93498047 -5.22679687 21.93498047 -5.203125 20.01953125 C-5 17 -5 17 -4 16 C-1.66702567 15.95907063 0.66705225 15.95758277 3 16 C2.67 13.69 2.34 11.38 2 9 C-8.23 8.67 -18.46 8.34 -29 8 C-29 7.67 -29 7.34 -29 7 C-26.36 7 -23.72 7 -21 7 C-21 6.34 -21 5.68 -21 5 C-15.39 5 -9.78 5 -4 5 C-4 4.01 -4 3.02 -4 2 C-1 0 -1 0 0 0 Z " fill="#CA463C" transform="translate(120,52)"/>
<path d="M0 0 C3.74654228 5.61981342 2.53962572 14.44126142 1.546875 20.98828125 C1.09596072 23.00773308 0.55920935 25.0078167 0 27 C-0.66 27 -1.32 27 -2 27 C-2.24105469 27.88171875 -2.48210937 28.7634375 -2.73046875 29.671875 C-4.11217875 33.29408091 -5.71029153 35.39850434 -8.3125 38.25 C-9.07175781 39.10078125 -9.83101563 39.9515625 -10.61328125 40.828125 C-13.04146688 43.03773418 -14.99173875 43.81947751 -18 45 C-18.33 45.99 -18.66 46.98 -19 48 C-27.52950754 52.09618643 -38.82384273 52.47328819 -47.8984375 50.30859375 C-59.38014725 46.08685739 -66.73200497 38.0684288 -72.390625 27.37109375 C-75.56679349 19.8668365 -75.84656991 12.03257028 -75 4 C-74.34 3.01 -73.68 2.02 -73 1 C-73 6.28 -73 11.56 -73 17 C-72.87625 15.700625 -72.7525 14.40125 -72.625 13.0625 C-72.4140625 10.84765625 -72.4140625 10.84765625 -72 9 C-71.34 8.67 -70.68 8.34 -70 8 C-69.90203125 9.0621875 -69.8040625 10.124375 -69.703125 11.21875 C-68.72765472 22.21360308 -68.72765472 22.21360308 -64 32 C-63.505 32.69609375 -63.01 33.3921875 -62.5 34.109375 C-57.30305267 40.70179893 -51.20938605 43.65664592 -43 45 C-31.82132777 45.97693267 -22.47381754 43.66536089 -13.65234375 36.59375 C-11.28111957 34.30661179 -9.72913371 31.79321599 -8 29 C-7.34 29 -6.68 29 -6 29 C-5.855625 28.05125 -5.71125 27.1025 -5.5625 26.125 C-5 23 -5 23 -4 21 C-3.76970044 18.62876754 -3.58880058 16.25258057 -3.4375 13.875 C-3.31181641 11.95300781 -3.31181641 11.95300781 -3.18359375 9.9921875 C-3.12300781 9.00476563 -3.06242187 8.01734375 -3 7 C-2.67 7 -2.34 7 -2 7 C-1.505 13.93 -1.505 13.93 -1 21 C-0.67 14.07 -0.34 7.14 0 0 Z " fill="#643739" transform="translate(143,110)"/>
<path d="M0 0 C0.66209473 -0.00095673 1.32418945 -0.00191345 2.00634766 -0.00289917 C3.40852961 -0.00358076 4.8107147 -0.00172792 6.21289062 0.00244141 C8.36595713 0.00779004 10.51881502 0.0024958 12.671875 -0.00390625 C14.03125046 -0.00324546 15.3906258 -0.00196429 16.75 0 C18.61785156 0.00169189 18.61785156 0.00169189 20.5234375 0.00341797 C23.375 0.1328125 23.375 0.1328125 24.375 1.1328125 C24.28536938 2.82422906 24.12922324 4.51240852 23.9375 6.1953125 C23.83566406 7.11441406 23.73382813 8.03351562 23.62890625 8.98046875 C23.54511719 9.69074219 23.46132812 10.40101562 23.375 11.1328125 C24.695 11.4628125 26.015 11.7928125 27.375 12.1328125 C25.725 12.1328125 24.075 12.1328125 22.375 12.1328125 C21.88 10.1528125 21.88 10.1528125 21.375 8.1328125 C20.385 8.4628125 19.395 8.7928125 18.375 9.1328125 C18.375 10.1228125 18.375 11.1128125 18.375 12.1328125 C12.765 12.1328125 7.155 12.1328125 1.375 12.1328125 C1.375 12.7928125 1.375 13.4528125 1.375 14.1328125 C8.965 14.4628125 16.555 14.7928125 24.375 15.1328125 C24.375 15.4628125 24.375 15.7928125 24.375 16.1328125 C13.815 16.1328125 3.255 16.1328125 -7.625 16.1328125 C-7.625 18.4428125 -7.625 20.7528125 -7.625 23.1328125 C-6.1709375 23.101875 -6.1709375 23.101875 -4.6875 23.0703125 C-1.625 23.1328125 -1.625 23.1328125 -0.625 24.1328125 C-0.45703125 26.05859375 -0.45703125 26.05859375 -0.4375 28.4453125 C-0.42332031 29.22519531 -0.40914062 30.00507812 -0.39453125 30.80859375 C-0.64515587 33.3360793 -1.36126228 34.94999281 -2.625 37.1328125 C-2.955 37.1328125 -3.285 37.1328125 -3.625 37.1328125 C-3.625 34.1628125 -3.625 31.1928125 -3.625 28.1328125 C-5.935 28.1328125 -8.245 28.1328125 -10.625 28.1328125 C-12.11841703 25.14597843 -11.75675178 22.38881476 -11.75 19.0703125 C-11.75257812 17.80058594 -11.75515625 16.53085937 -11.7578125 15.22265625 C-11.625 12.1328125 -11.625 12.1328125 -10.625 11.1328125 C-8.95882885 11.09217418 -7.29111905 11.0900915 -5.625 11.1328125 C-6.12 10.3284375 -6.12 10.3284375 -6.625 9.5078125 C-7.86196723 6.57001533 -7.83556341 4.29126367 -7.625 1.1328125 C-5.74180732 -0.75038018 -2.50569863 0.00226965 0 0 Z " fill="#CC463C" transform="translate(97.625,44.8671875)"/>
<path d="M0 0 C0.625 1.875 0.625 1.875 1 4 C0.34 4.66 -0.32 5.32 -1 6 C-2.25368896 9.48636134 -2.13831371 12.9573308 -2.15821838 16.63116455 C-2.16315636 17.29611773 -2.16809434 17.96107091 -2.17318195 18.64617419 C-2.18853019 20.87251209 -2.19691029 23.09882121 -2.20532227 25.32519531 C-2.21490289 26.92182671 -2.22491309 28.51845557 -2.23532104 30.11508179 C-2.26235615 34.44940127 -2.28337328 38.78373162 -2.30332303 43.11808872 C-2.32519116 47.64781742 -2.35257581 52.17751266 -2.37937927 56.70721436 C-2.42929495 65.28481011 -2.47423797 73.86242446 -2.51740164 82.44005656 C-2.56678361 92.20540278 -2.62169819 101.97071541 -2.67708123 111.73602915 C-2.79088401 131.82398815 -2.89772678 151.91197921 -3 172 C-4.47661114 170.8992424 -4.47661114 170.8992424 -6 169 C-6.37473011 166.1516304 -6.37473011 166.1516304 -6.3742218 162.61212158 C-6.38018341 161.63563254 -6.38018341 161.63563254 -6.38626546 160.63941646 C-6.39590493 158.45372604 -6.38406083 156.26868027 -6.37231445 154.08300781 C-6.37474198 152.51758584 -6.37846092 150.95216541 -6.38337708 149.38674927 C-6.3927982 145.13031184 -6.38334879 140.8741039 -6.37004495 136.61768436 C-6.35873801 132.16331505 -6.36283758 127.70895717 -6.36479187 123.25457764 C-6.36567545 115.76928964 -6.35458411 108.28409209 -6.33618164 100.79882812 C-6.31504392 92.15163662 -6.3114972 83.50457794 -6.3177436 74.85736585 C-6.32344575 66.53704151 -6.31777957 58.21676384 -6.30657005 49.89644623 C-6.30193218 46.35754277 -6.30104675 42.81866793 -6.3031559 39.27976227 C-6.3050445 35.10682134 -6.29689096 30.93401486 -6.2810955 26.76110458 C-6.27686494 25.23211854 -6.27599381 23.70311883 -6.27878571 22.17412949 C-6.2820265 20.08121143 -6.2728784 17.98869026 -6.26069641 15.89581299 C-6.25864354 14.72626698 -6.25659067 13.55672096 -6.25447559 12.35173416 C-5.97366597 8.65315074 -5.2352436 5.49475114 -4 2 C-1.875 0.5625 -1.875 0.5625 0 0 Z " fill="#E2443B" transform="translate(10,17)"/>
<path d="M0 0 C53.13 0 106.26 0 161 0 C161 0.99 161 1.98 161 3 C107.87 3 54.74 3 0 3 C0 2.01 0 1.02 0 0 Z " fill="#E5493D" transform="translate(24,205)"/>
<path d="M0 0 C22.20921311 -0.11676047 44.41837568 -0.20495251 66.62783337 -0.25906086 C76.93990013 -0.28485121 87.25177628 -0.32001769 97.5637207 -0.37719727 C106.55078915 -0.4270067 115.53771955 -0.45928496 124.52492219 -0.47044247 C129.28440423 -0.4769654 134.04349135 -0.49231336 138.80284691 -0.52865028 C143.28198339 -0.56257094 147.76056203 -0.57306096 152.23981476 -0.56553841 C153.88416639 -0.56691472 155.52853655 -0.57687091 157.17277718 -0.59602737 C159.41817262 -0.62090594 161.661462 -0.61492668 163.90690613 -0.60127258 C165.79151188 -0.60818603 165.79151188 -0.60818603 167.71419048 -0.61523914 C171.88557401 0.165816 173.39469991 1.72238685 176 5 C176 5.66 176 6.32 176 7 C176.61875 7.2475 177.2375 7.495 177.875 7.75 C180.49398016 9.29057656 180.93309081 10.17255364 182 13 C182.25447559 16.0550909 182.25447559 16.0550909 182.26069641 19.71141052 C182.26452196 20.38508653 182.26834751 21.05876254 182.27228898 21.75285298 C182.28260352 24.00906155 182.27862985 26.26501491 182.2746582 28.52124023 C182.27900553 30.13931514 182.28418875 31.75738798 182.29014587 33.37545776 C182.30354472 37.77006773 182.30411357 42.16459175 182.30158257 46.55921817 C182.30051349 50.22729914 182.30539462 53.89536267 182.310188 57.56343991 C182.32128619 66.21654154 182.32171879 74.86959977 182.31567383 83.52270508 C182.30963244 92.45115973 182.3219485 101.37945686 182.3432439 110.30788463 C182.36085321 117.97253374 182.36686233 125.63713267 182.36360615 133.30180126 C182.36179212 137.88000556 182.36444146 142.45809749 182.37832069 147.03628349 C182.39088358 151.34140452 182.38896961 155.64627975 182.37590981 159.95139694 C182.37354113 161.53121969 182.37628915 163.11105965 182.38453293 164.69086266 C182.39497783 166.84806305 182.3869188 169.00443528 182.3742218 171.16160583 C182.37438954 172.36856833 182.37455729 173.57553083 182.37473011 174.81906796 C181.96709667 178.27930304 181.00408694 180.18702426 179 183 C178.67 182.34 178.34 181.68 178 181 C178.4559972 180.14787949 178.4559972 180.14787949 178.92120647 179.27854443 C180.35131036 176.25798938 180.25477282 173.88225109 180.26069641 170.54328918 C180.26452196 169.89693675 180.26834751 169.25058432 180.27228898 168.58464545 C180.28260039 166.42068655 180.27863038 164.25699392 180.2746582 162.09301758 C180.27900588 160.54054519 180.28418922 158.98807496 180.29014587 157.43560791 C180.30354545 153.21840868 180.30411317 149.00129902 180.30158257 144.78408265 C180.30051288 141.26052749 180.30539652 137.73699045 180.310188 134.21343917 C180.32128785 125.89577835 180.32171879 117.57816269 180.31567383 109.26049805 C180.30964137 100.6911198 180.32192541 92.12190604 180.3432439 83.55255586 C180.36088772 76.18847828 180.36685662 68.82445291 180.36360615 61.46035498 C180.36179659 57.06534493 180.36439624 52.67045205 180.37832069 48.2754612 C180.39093866 44.13776293 180.3889176 40.00031968 180.37590981 35.86262512 C180.37355257 34.34898478 180.37624795 32.83532628 180.38453293 31.32170677 C180.77609133 19.70923547 180.77609133 19.70923547 177 9 C175.02867628 7.87560088 175.02867628 7.87560088 173 7 C170 3.57142857 170 3.57142857 170 1 C147.99964476 1.10712252 125.99932474 1.21986275 103.99903297 1.33933926 C93.78452333 1.39467918 83.5700102 1.44816243 73.35546875 1.49731445 C64.45520609 1.54014688 55.55496924 1.58642247 46.65474641 1.63687855 C41.93969619 1.66348708 37.2246511 1.68834034 32.50957108 1.70907402 C28.07570284 1.72862543 23.64188374 1.75276469 19.20805931 1.78049088 C17.57700046 1.78986925 15.9459308 1.79754169 14.31485558 1.80341911 C12.09531696 1.81166697 9.87589804 1.82593982 7.65640259 1.84178162 C6.41198206 1.84823417 5.16756153 1.85468672 3.88543129 1.8613348 C1.05838271 1.80257359 1.05838271 1.80257359 -1 3 C-0.67 2.01 -0.34 1.02 0 0 Z " fill="#9E3D39" transform="translate(20,10)"/>
<path d="M0 0 C0.66 0 1.32 0 2 0 C7.30033033 5.64228712 9.3753081 11.31233409 9.3742218 18.93136597 C9.37819621 19.59253233 9.38217061 20.25369869 9.38626546 20.9349004 C9.39582302 23.13114128 9.38411077 25.32672732 9.37231445 27.52294922 C9.37474464 29.10542032 9.37846615 30.68788988 9.38337708 32.27035522 C9.39276023 36.55561477 9.38338151 40.84064486 9.37004495 45.12588644 C9.35869945 49.61933505 9.36284045 54.11277287 9.36479187 58.60623169 C9.36567405 66.15337861 9.35461191 73.70043557 9.33618164 81.24755859 C9.31503054 89.95841366 9.31150137 98.66913685 9.3177436 107.38001239 C9.32345037 115.775089 9.31777514 124.17011942 9.30657005 132.56518936 C9.30193988 136.13035059 9.30104337 139.69548342 9.3031559 143.26064682 C9.30504791 147.4648359 9.29686513 151.66889194 9.2810955 155.87305069 C9.27687437 157.41087544 9.27598738 158.94871375 9.27878571 160.48654175 C9.29067847 168.19509476 9.30044217 175.57406126 7 183 C6.34 183.33 5.68 183.66 5 184 C5 182.35 5 180.7 5 179 C2.03 180.98 2.03 180.98 -1 183 C-0.690625 182.401875 -0.38125 181.80375 -0.0625 181.1875 C1.92266798 177.10038945 2.13413552 173.91665775 2.15821838 169.41316223 C2.16315636 168.74089637 2.16809434 168.06863051 2.17318195 167.37599295 C2.18856418 165.11890992 2.19691951 162.86185535 2.20532227 160.60473633 C2.21490022 158.98854827 2.22491025 157.37236272 2.23532104 155.75617981 C2.26238511 151.36395159 2.28338655 146.97171261 2.30332303 142.57944703 C2.32517331 137.99098891 2.35256669 133.40256402 2.37937927 128.81413269 C2.42931912 120.12317239 2.47425316 111.43219367 2.51740164 102.74119729 C2.56676297 92.84770274 2.62168519 82.95424153 2.67708123 73.06077921 C2.79092111 52.70721719 2.89775579 32.35362335 3 12 C3.33 12 3.66 12 4 12 C4.33 65.46 4.66 118.92 5 174 C5.66 174 6.32 174 7 174 C7.09352716 153.29407154 7.16402029 132.58817802 7.20724869 111.88208103 C7.22785574 102.26742546 7.25594081 92.6529013 7.30175781 83.03833008 C7.34168246 74.65624223 7.36744631 66.27424957 7.37635398 57.89206928 C7.38155921 53.45556567 7.39375454 49.01933434 7.42292023 44.58291817 C7.45017838 40.40257793 7.45842412 36.22262076 7.45243073 32.04220009 C7.45352633 30.51241724 7.46141826 28.98262088 7.4768219 27.45291519 C7.55564473 19.21750079 7.34056221 12.23000601 3 5 C2.4225 3.989375 1.845 2.97875 1.25 1.9375 C0.8375 1.298125 0.425 0.65875 0 0 Z " fill="#BE4039" transform="translate(199,12)"/>
<path d="M0 0 C1.04498557 -0.00724325 1.04498557 -0.00724325 2.11108196 -0.01463282 C4.4273811 -0.0258349 6.74255915 -0.00863868 9.05880737 0.00863647 C10.72658587 0.00648891 12.3943629 0.0026087 14.06213379 -0.00286865 C18.57858819 -0.01253975 23.09464563 0.00271228 27.61105204 0.02303743 C32.34126216 0.04063809 37.07146058 0.0370828 41.80169678 0.03631592 C49.74228538 0.03818722 57.68272083 0.05552984 65.6232605 0.08285522 C74.80225986 0.11432583 83.98109169 0.12485056 93.16014111 0.12338412 C102.93754636 0.12203308 112.71488708 0.1359139 122.49227285 0.15427732 C125.30818648 0.15853862 128.1240897 0.15995949 130.94000626 0.16075516 C135.36415863 0.16276482 139.78817048 0.17498086 144.21227646 0.19508743 C145.8356312 0.20092634 147.45900211 0.20339041 149.08236694 0.20223236 C151.29838724 0.20124977 153.51401492 0.21257313 155.72998047 0.22705078 C156.96991823 0.23040247 158.209856 0.23375416 159.48736763 0.23720741 C165.1698074 0.68693901 168.46611888 2.83285828 172.73800659 6.49447632 C172.40800659 7.15447632 172.07800659 7.81447632 171.73800659 8.49447632 C170.92439163 7.68183823 170.11077667 6.86920013 169.27250671 6.03193665 C163.16533975 1.72206388 155.34062427 2.82585718 148.18600464 2.89511108 C146.49365377 2.89324592 144.80130412 2.88920689 143.10896301 2.88316345 C138.5265079 2.87320626 133.94467336 2.89432682 129.36230826 2.9216435 C124.56663967 2.94549813 119.77098285 2.9425287 114.9752655 2.94294739 C106.92789211 2.94757163 98.88075575 2.97119377 90.83346558 3.00741577 C81.52148341 3.04921793 72.20971434 3.06673492 62.89764374 3.07003552 C52.98741575 3.07363011 43.07726468 3.09249105 33.16706872 3.11715579 C30.3077817 3.12339226 27.44850052 3.1270235 24.5892086 3.1301899 C20.10513884 3.1360757 15.62122237 3.15234727 11.13721657 3.17679405 C9.48841663 3.18425462 7.83959739 3.1883073 6.19078064 3.18877411 C3.94742628 3.19002539 1.7044807 3.2035191 -0.5388031 3.22032166 C-2.42498085 3.22729742 -2.42498085 3.22729742 -4.34926319 3.2344141 C-7.38689607 3.1917647 -7.38689607 3.1917647 -9.26199341 5.49447632 C-11.24555824 6.20855966 -13.24514778 6.88065374 -15.26199341 7.49447632 C-14.05612673 3.8768763 -12.51894677 3.06675969 -9.23228669 1.31250262 C-6.13050003 0.02470293 -3.33828554 -0.00293157 0 0 Z " fill="#4F2E2B" transform="translate(27.261993408203125,1.505523681640625)"/>
<path d="M0 0 C0.33 0 0.66 0 1 0 C1.0701258 20.59283473 1.12300569 41.18564974 1.15543652 61.77857971 C1.17089591 71.3405456 1.19196772 80.90243724 1.22631836 90.46435547 C1.25624909 98.79992155 1.27558174 107.13543384 1.28226548 115.47105217 C1.28617152 119.88343846 1.29533192 124.2956709 1.31719017 128.70800781 C1.33761338 132.86449864 1.34382205 137.0207728 1.33932304 141.17730904 C1.34014564 142.69943991 1.34607653 144.22157834 1.35761642 145.7436657 C1.46611164 160.79744902 1.46611164 160.79744902 -2 167 C-2.67502973 167.16692856 -3.35005945 167.33385712 -4.04554462 167.50584412 C-4.6905149 167.66891556 -5.33548517 167.831987 -6 168 C-6.33 168.99 -6.66 169.98 -7 171 C-9.5 172.125 -9.5 172.125 -12 173 C-12.33 173.33 -12.66 173.66 -13 174 C-15.10214566 174.10566194 -17.20789694 174.13968771 -19.31268311 174.14717102 C-19.97971229 174.15084771 -20.64674147 174.1545244 -21.33398366 174.1583125 C-23.58561912 174.16939046 -25.8372085 174.17320011 -28.08886719 174.17700195 C-29.69664661 174.18326357 -31.30442457 174.18991009 -32.91220093 174.19691467 C-37.29249797 174.21435406 -41.67278407 174.22488468 -46.05310726 174.2331202 C-48.78808471 174.23826472 -51.52305872 174.24434073 -54.25803375 174.25063133 C-62.81009033 174.26969262 -71.36213823 174.28392108 -79.91421199 174.2922433 C-89.79524163 174.30201661 -99.67604731 174.32833458 -109.55699801 174.36874419 C-117.18760838 174.39888249 -124.81815447 174.41371005 -132.44882321 174.41702431 C-137.00924425 174.41937768 -141.56942629 174.42837484 -146.12978363 174.45348549 C-150.42094528 174.47673098 -154.71171 174.48101377 -159.00291824 174.47072411 C-160.57791334 174.47022775 -162.15292774 174.47657756 -163.72786331 174.49028015 C-165.87884697 174.50794713 -168.02839815 174.50092035 -170.17938232 174.48774719 C-171.98460924 174.49132972 -171.98460924 174.49132972 -173.82630539 174.49498463 C-177.59254052 173.90758454 -179.26968044 172.59313207 -182 170 C-180.35 170 -178.7 170 -177 170 C-176.67 170.99 -176.34 171.98 -176 173 C-154.96408909 172.93949 -133.92830177 172.86200746 -112.89252949 172.76428509 C-103.12538545 172.71930779 -93.35827802 172.67989759 -83.59106445 172.65356445 C-75.07856756 172.63060004 -66.56618637 172.59721945 -58.05378121 172.55129844 C-53.54596656 172.5273452 -49.03826665 172.50863021 -44.53038979 172.50238609 C-40.28764984 172.49634472 -36.04520356 172.47637933 -31.80257225 172.44572449 C-30.24535027 172.43692903 -28.68808993 172.4332248 -27.13084412 172.43499184 C-25.00402922 172.43664323 -22.87811097 172.4199584 -20.75141907 172.39872742 C-19.56138433 172.39411845 -18.37134958 172.38950949 -17.14525318 172.38476086 C-13.69531019 171.9627271 -11.85510219 170.91168107 -9 169 C-8.34 169 -7.68 169 -7 169 C-7 168.34 -7 167.68 -7 167 C-5.68 166.67 -4.36 166.34 -3 166 C-3.04125 165.05125 -3.0825 164.1025 -3.125 163.125 C-3 160 -3 160 -1 158 C-0.68404511 155.15590676 -0.68404511 155.15590676 -0.7215271 151.76119995 C-0.7128385 150.79083477 -0.7128385 150.79083477 -0.70397437 149.80086625 C-0.68690885 147.62354197 -0.68409233 145.44642882 -0.68115234 143.26904297 C-0.67185866 141.71211218 -0.66169083 140.15518641 -0.65071106 138.5982666 C-0.62333374 134.36299357 -0.60823885 130.12775393 -0.59528303 125.89241552 C-0.57968619 121.46942644 -0.55288507 117.04650593 -0.5272522 112.62356567 C-0.48040318 104.24424013 -0.44368878 95.86490177 -0.41057932 87.4855119 C-0.3724011 77.94751524 -0.32297975 68.40958733 -0.27259517 58.87164855 C-0.16918429 39.24781642 -0.07995375 19.6239408 0 0 Z " fill="#5E3639" transform="translate(200,28)"/>
<path d="M0 0 C0.70110873 -0.00297112 1.40221747 -0.00594224 2.12457192 -0.0090034 C4.49143584 -0.01772676 6.85824941 -0.0192017 9.22512817 -0.02069092 C10.91496897 -0.02531652 12.60480871 -0.03034083 14.29464722 -0.03573608 C18.897948 -0.04888686 23.50123419 -0.05531023 28.10455084 -0.05974674 C30.97754076 -0.06267313 33.85052665 -0.06677709 36.72351456 -0.07125092 C45.70378631 -0.08493283 54.6840489 -0.09459611 63.66433036 -0.09845281 C74.04680077 -0.10293559 84.42913965 -0.12049076 94.81157005 -0.1494534 C102.82601089 -0.17103777 110.84041465 -0.18115535 118.85488427 -0.18249393 C123.6465822 -0.18354428 128.43815662 -0.18950076 133.22982407 -0.20731354 C137.73597193 -0.22373829 142.24190271 -0.22597713 146.74806976 -0.21717453 C148.40452529 -0.21640114 150.06099223 -0.22078635 151.71741867 -0.23063278 C153.97398375 -0.24326282 156.22976951 -0.23752512 158.48632812 -0.22705078 C159.75065107 -0.22851734 161.01497402 -0.2299839 162.31760979 -0.2314949 C165.37014771 0.14044189 165.37014771 0.14044189 167.30038643 1.66341019 C167.65340765 2.15083065 168.00642887 2.63825111 168.37014771 3.14044189 C167.52629642 2.97833851 166.68244514 2.81623512 165.81302261 2.64921951 C162.24931348 2.12258538 158.88576801 2.00870486 155.28414917 2 C154.24952085 1.99554332 154.24952085 1.99554332 153.19399095 1.9909966 C150.89560101 1.98236319 148.59726348 1.98080598 146.29885864 1.97930908 C144.64606618 1.97467747 142.99327479 1.96965235 141.34048462 1.96426392 C136.86151003 1.95117948 132.38255039 1.94470385 127.90355968 1.94025326 C125.10643246 1.9373189 122.30930931 1.93321362 119.51218414 1.92874908 C110.76312586 1.9150907 102.01407689 1.90541335 93.26500869 1.90154719 C83.15877952 1.8970566 73.05268495 1.87945553 62.94649673 1.8505466 C55.13494136 1.82897435 47.32342401 1.81884547 39.51183915 1.81750607 C34.84488383 1.81645575 30.17805531 1.81049861 25.51113129 1.79268646 C21.12803476 1.77628054 16.74516146 1.77401353 12.36204529 1.78282547 C10.75031692 1.78359962 9.13857689 1.77920381 7.52687836 1.76936722 C5.33371887 1.75676202 3.14136408 1.76246065 0.94821167 1.77294922 C-0.2810416 1.77148266 -1.51029488 1.7700161 -2.77679825 1.7685051 C-3.71830608 1.89124424 -4.65981392 2.01398338 -5.62985229 2.14044189 C-6.61985229 3.62544189 -6.61985229 3.62544189 -7.62985229 5.14044189 C-9.46969604 5.87872314 -9.46969604 5.87872314 -11.56735229 6.45294189 C-14.94184953 7.61026044 -15.46431313 7.87215428 -17.44235229 11.07794189 C-17.83422729 12.08856689 -18.22610229 13.09919189 -18.62985229 14.14044189 C-19.59519752 15.49907591 -20.58262378 16.84387326 -21.62985229 18.14044189 C-20.97312518 12.72244316 -18.67532894 8.0539523 -14.69235229 4.32794189 C-12.40899845 3.01328362 -10.0915122 2.07188078 -7.62985229 1.14044189 C-5.74790444 -0.74150596 -2.50296205 0.00589241 0 0 Z " fill="#A23B32" transform="translate(26.629852294921875,3.85955810546875)"/>
<path d="M0 0 C0.44730469 0.39832031 0.89460937 0.79664063 1.35546875 1.20703125 C4.75380411 4.18510339 8.03285004 6.7960278 12 9 C12.99 9.66 13.98 10.32 15 11 C18.08057232 11.31376847 18.08057232 11.31376847 21.6627655 11.2784729 C22.34319847 11.2842653 23.02363144 11.2900577 23.72468358 11.29602563 C26.00945592 11.31305923 28.29402667 11.31590497 30.57885742 11.31884766 C32.21475217 11.32814353 33.85064216 11.33831169 35.48652649 11.34928894 C39.93247793 11.3766415 44.3783976 11.39175388 48.82441115 11.40471697 C53.46894088 11.42032456 58.11340548 11.4471223 62.75788879 11.4727478 C71.55509072 11.51957768 80.35230484 11.55630139 89.1495679 11.58942068 C99.1639974 11.62761236 109.17836156 11.67703023 119.19273603 11.72740483 C139.79510914 11.83078727 160.3975236 11.92002712 181 12 C181 12.33 181 12.66 181 13 C159.17270491 13.25737617 137.34566128 13.45113937 115.51715469 13.56993389 C105.38087377 13.62656781 95.24553762 13.70372715 85.10986328 13.82983398 C76.27177933 13.9397436 67.43437978 14.0105033 58.59563136 14.03497344 C53.91851578 14.04927041 49.24335747 14.08267542 44.56687164 14.16303062 C40.15690428 14.23818614 35.74968312 14.26063366 31.33913612 14.24418449 C29.72824182 14.24718947 28.11724748 14.26878975 26.50691032 14.31126022 C17.74025528 14.5309586 11.53588174 13.75300871 4.94525146 7.54695129 C3.13821461 5.76007806 1.58801875 3.99911616 0 2 C0 1.34 0 0.68 0 0 Z " fill="#953733" transform="translate(6,197)"/>
<path d="M0 0 C0.99 0.495 0.99 0.495 2 1 C1.01 1.33 0.02 1.66 -1 2 C-1.33 2.99 -1.66 3.98 -2 5 C-8.63791667 10.57856583 -16.75765472 9.56337961 -24.96948242 9.51757812 C-26.5994784 9.52300266 -28.22946946 9.53012718 -29.85945129 9.53881836 C-34.27251069 9.55701104 -38.68519492 9.5500022 -43.09826064 9.53730202 C-47.71951399 9.52715846 -52.34073572 9.53657098 -56.96199036 9.54284668 C-64.71845253 9.55011695 -72.47476217 9.5405494 -80.23120117 9.52148438 C-89.20013155 9.49969378 -98.1686985 9.5067853 -107.13762015 9.52879 C-114.84140104 9.54693425 -122.54507247 9.5495078 -130.24886781 9.53903532 C-134.84881032 9.53279797 -139.44858187 9.53197183 -144.04851341 9.54518127 C-148.37017684 9.55672582 -152.69137069 9.54873992 -157.01298332 9.52560425 C-158.5996701 9.52031063 -160.18639634 9.52184211 -161.77306747 9.53065491 C-163.93727501 9.5415685 -166.09997284 9.52790057 -168.26408386 9.50793457 C-170.08112713 9.50567242 -170.08112713 9.50567242 -171.93487835 9.50336456 C-175.5618782 8.90772648 -176.73620612 7.82185356 -179 5 C-175.125 5.875 -175.125 5.875 -174 7 C-171.89330608 7.10347036 -169.78308557 7.13523322 -167.67385864 7.14044189 C-167.00541833 7.14341302 -166.33697801 7.14638414 -165.64828193 7.1494453 C-163.39197371 7.15816781 -161.13571832 7.15964352 -158.87939453 7.16113281 C-157.26837042 7.16575848 -155.6573474 7.17078279 -154.04632568 7.17617798 C-149.6578941 7.18932822 -145.26947783 7.19575203 -140.88102961 7.20018864 C-138.14204735 7.20311513 -135.40306933 7.20721912 -132.6640892 7.21169281 C-124.10242326 7.22537464 -115.54076693 7.23503794 -106.97909081 7.2388947 C-97.08110196 7.24337734 -87.18325107 7.2609319 -77.28530419 7.2898953 C-69.64453315 7.31148099 -62.00380102 7.32159731 -54.3629998 7.32293582 C-49.79486477 7.32398609 -45.2268593 7.3299407 -40.65875626 7.34775543 C-36.36272378 7.36418248 -32.066919 7.36641792 -27.77086639 7.35761642 C-26.19181333 7.35684316 -24.61274829 7.3612267 -23.03372574 7.37107468 C-20.8822455 7.38370863 -18.73158218 7.37796504 -16.58010864 7.36749268 C-15.37478045 7.36895924 -14.16945225 7.3704258 -12.92759895 7.3719368 C-9.70510572 6.96253516 -8.97595487 6.45545891 -7 4 C-5.66666667 3.66666667 -4.33333333 3.33333333 -3 3 C-1.26973898 1.52109931 -1.26973898 1.52109931 0 0 Z " fill="#AF3F39" transform="translate(196,195)"/>
<path d="M0 0 C0.66 0.33 1.32 0.66 2 1 C1.566875 1.495 1.13375 1.99 0.6875 2.5 C-4.89316731 10.76765527 -4.4431979 19.37441579 -4.43237305 28.96289062 C-4.441399 30.57982122 -4.45172826 32.19674498 -4.46325684 33.81365967 C-4.49075514 38.18496561 -4.50010158 42.55614146 -4.50611091 46.92752266 C-4.51551328 51.50263719 -4.54171817 56.07765526 -4.56611633 60.65270996 C-4.6097338 69.30808675 -4.63830994 77.96344477 -4.66143972 86.61889791 C-4.68851689 96.47626715 -4.73242684 106.33353912 -4.77772844 116.19083881 C-4.87050663 136.46050684 -4.9422186 156.73020398 -5 177 C-5.33 177 -5.66 177 -6 177 C-6.09346404 155.34684141 -6.1639894 133.69371611 -6.20724869 112.04039669 C-6.2278691 101.98625379 -6.25597981 91.93223626 -6.30175781 81.87817383 C-6.34164145 73.11448935 -6.3674366 64.35089569 -6.37635398 55.58712298 C-6.38156613 50.94724413 -6.39380579 46.30762506 -6.42292023 41.66782951 C-6.45011344 37.29872139 -6.45843712 32.92997954 -6.45243073 28.56079483 C-6.45352922 26.95922034 -6.46145996 25.35763332 -6.4768219 23.75613213 C-6.49681202 21.56422473 -6.49190776 19.37368853 -6.48101807 17.18174744 C-6.48470524 15.95668456 -6.48839241 14.73162169 -6.49219131 13.46943569 C-5.72571051 8.06654504 -3.0086449 4.51296735 0 0 Z " fill="#69322F" transform="translate(7,13)"/>
<path d="M0 0 C0.99 0.495 0.99 0.495 2 1 C-3.45995633 5.73196215 -6.31901186 7.12578746 -13.73869324 7.12025452 C-14.42729331 7.12110894 -15.11589338 7.12196337 -15.82536012 7.12284368 C-18.13775009 7.12449365 -20.45006786 7.118985 -22.76245117 7.11352539 C-24.41804503 7.11324339 -26.07363901 7.11340151 -27.72923279 7.1139679 C-32.22892254 7.11425536 -36.72858576 7.10836678 -41.22826934 7.10139394 C-45.92881496 7.095152 -50.62936115 7.09455593 -55.32991028 7.09336853 C-64.23339043 7.0902577 -73.13685834 7.08204764 -82.04033309 7.07201904 C-92.17563742 7.06085022 -102.31094233 7.05534551 -112.44625127 7.05032361 C-133.29750769 7.03986483 -154.14875307 7.02227017 -175 7 C-175 6.67 -175 6.34 -175 6 C-174.1588521 5.99945523 -173.3177042 5.99891047 -172.45106697 5.99834919 C-151.95997719 5.98336529 -131.46910458 5.94085334 -110.97813606 5.86790943 C-101.06873247 5.83329388 -91.15946749 5.80790841 -81.25 5.80444336 C-72.61032669 5.80139869 -63.97090047 5.78084063 -55.33132255 5.73947543 C-50.75899066 5.71818936 -46.18700966 5.70552217 -41.61462784 5.71384621 C-37.30524384 5.72141426 -32.99656918 5.70545253 -28.68731499 5.67193985 C-27.11123049 5.66373961 -25.53507501 5.66391747 -23.95899773 5.67340279 C-15.72889019 5.71800482 -8.99325074 5.42391336 -1.81040764 0.97291088 C-1.21297312 0.65185029 -0.6155386 0.3307897 0 0 Z " fill="#5D2F2D" transform="translate(197,204)"/>
<path d="M0 0 C0.33 0 0.66 0 1 0 C1 54.78 1 109.56 1 166 C1.99 166.33 2.98 166.66 4 167 C4.94921875 169.06640625 4.94921875 169.06640625 5.6875 171.5625 C6.06455078 172.80193359 6.06455078 172.80193359 6.44921875 174.06640625 C6.63097656 174.70449219 6.81273437 175.34257812 7 176 C6.34 176 5.68 176 5 176 C4.731875 175.236875 4.46375 174.47375 4.1875 173.6875 C3.24764722 171.00327712 3.24764722 171.00327712 1.44832897 169.75319958 C-0.78391654 167.05107046 -0.3684974 164.71833706 -0.36076355 161.26130676 C-0.36332682 160.57270669 -0.3658901 159.88410662 -0.36853105 159.17463988 C-0.37348141 156.86203969 -0.3569561 154.5500891 -0.34057617 152.23754883 C-0.33973017 150.58195511 -0.34020452 148.92636027 -0.34190369 147.27076721 C-0.34276611 142.77099021 -0.32510052 138.27145205 -0.30418181 133.77173066 C-0.28545605 129.07119592 -0.28366781 124.370656 -0.28010559 119.67008972 C-0.27077305 110.76656252 -0.24614293 101.86314553 -0.21605712 92.95966691 C-0.1825507 82.82437644 -0.16603656 72.68908077 -0.15097082 62.55374873 C-0.11959442 41.70243758 -0.06681045 20.85122573 0 0 Z " fill="#3C2C2C" transform="translate(0,24)"/>
<path d="M0 0 C7.26 0 14.52 0 22 0 C21.67 2.31 21.34 4.62 21 7 C14.4 7 7.8 7 1 7 C0.67 4.69 0.34 2.38 0 0 Z " fill="#4F3438" transform="translate(95,49)"/>
<path d="M0 0 C3.74654228 5.61981342 2.53962572 14.44126142 1.546875 20.98828125 C1.09596072 23.00773308 0.55920935 25.0078167 0 27 C-0.66 27 -1.32 27 -2 27 C-2.66 28.32 -3.32 29.64 -4 31 C-5.32 31 -6.64 31 -8 31 C-8 30.34 -8 29.68 -8 29 C-7.34 29 -6.68 29 -6 29 C-5.7834375 27.576875 -5.7834375 27.576875 -5.5625 26.125 C-5 23 -5 23 -4 21 C-3.76970044 18.62876754 -3.58880058 16.25258057 -3.4375 13.875 C-3.35371094 12.59367187 -3.26992187 11.31234375 -3.18359375 9.9921875 C-3.12300781 9.00476563 -3.06242188 8.01734375 -3 7 C-2.67 7 -2.34 7 -2 7 C-1.67 11.62 -1.34 16.24 -1 21 C-0.67 14.07 -0.34 7.14 0 0 Z " fill="#723A3A" transform="translate(143,110)"/>
<path d="M0 0 C0.66 0.33 1.32 0.66 2 1 C0.34315356 7.32614095 -2.52309016 11.34872677 -8 15 C-10.6875 15.125 -10.6875 15.125 -13 15 C-9.61182282 8.72861435 -5.56838307 4.42154487 0 0 Z " fill="#DB453B" transform="translate(203,190)"/>
<path d="M0 0 C0.66 0.33 1.32 0.66 2 1 C1.01 2.32 0.02 3.64 -1 5 C1.31 4.34 3.62 3.68 6 3 C5 5 5 5 3.0234375 5.8515625 C-5.13926932 8.23536184 -12.56389148 8.30738857 -21 8 C-21 7.67 -21 7.34 -21 7 C-12.585 6.505 -12.585 6.505 -4 6 C-4 5.34 -4 4.68 -4 4 C-8.95 4 -13.9 4 -19 4 C-19 3.67 -19 3.34 -19 3 C-17.87980469 2.86722656 -16.75960937 2.73445312 -15.60546875 2.59765625 C-14.13279271 2.41943431 -12.66013753 2.24103989 -11.1875 2.0625 C-10.44951172 1.97548828 -9.71152344 1.88847656 -8.95117188 1.79882812 C-5.83266879 1.41783454 -2.98891878 0.99630626 0 0 Z " fill="#823C3A" transform="translate(119,153)"/>
<path d="M0 0 C0.68620031 1.32338632 1.34786461 2.65949948 2 4 C2.350625 4.70125 2.70125 5.4025 3.0625 6.125 C4.28529555 9.87490636 4.21548905 13.41799051 4.125 17.3125 C4.11597656 18.05306641 4.10695312 18.79363281 4.09765625 19.55664062 C4.07424213 21.37123467 4.03837615 23.18566071 4 25 C3.01 25 2.02 25 1 25 C0.93941406 23.84242188 0.87882813 22.68484375 0.81640625 21.4921875 C0.73194498 19.95311543 0.64729982 18.41405345 0.5625 16.875 C0.52318359 16.11445312 0.48386719 15.35390625 0.44335938 14.5703125 C0.25298267 11.17282045 -0.01235393 7.9291062 -0.59765625 4.5703125 C-1 2 -1 2 0 0 Z " fill="#DC483C" transform="translate(144,105)"/>
<path d="M0 0 C7.26 0 14.52 0 22 0 C21.67 2.31 21.34 4.62 21 7 C14.4 7 7.8 7 1 7 C0.67 4.69 0.34 2.38 0 0 Z M3 1 C2.67 2.65 2.34 4.3 2 6 C7.94 6 13.88 6 20 6 C20.33 4.35 20.66 2.7 21 1 C15.06 1 9.12 1 3 1 Z " fill="#743A3A" transform="translate(95,49)"/>
<path d="M0 0 C7.31169668 3.52044655 11.12870849 6.16920497 14 14 C14.1875 17.4375 14.1875 17.4375 14 20 C12.45790811 17.68686216 11.21711525 15.53951971 10 13.0625 C9.67 12.39347656 9.34 11.72445313 9 11.03515625 C8.31316303 9.6373357 7.64752461 8.22896009 7 6.8125 C5.71746688 4.48790872 4.36145073 4.10693003 2 3 C1.34 2.01 0.68 1.02 0 0 Z " fill="#703231" transform="translate(195,7)"/>
<path d="M0 0 C2.9375 1.3125 2.9375 1.3125 6 3 C6.33 3.99 6.66 4.98 7 6 C7.66 6 8.32 6 9 6 C9 6.99 9 7.98 9 9 C4.16743695 8.58578031 2.17320782 6.53586014 -1 3 C-0.67 2.01 -0.34 1.02 0 0 Z " fill="#DE453B" transform="translate(10,195)"/>
<path d="M0 0 C7.59 0 15.18 0 23 0 C23.33 0.99 23.66 1.98 24 3 C24.66 3 25.32 3 26 3 C26 4.65 26 6.3 26 8 C27.32 8.33 28.64 8.66 30 9 C28.35 9 26.7 9 25 9 C24.67 7.68 24.34 6.36 24 5 C23.01 5.495 23.01 5.495 22 6 C22 4.35 22 2.7 22 1 C14.74 1 7.48 1 0 1 C0 0.67 0 0.34 0 0 Z " fill="#BC433C" transform="translate(95,48)"/>
<path d="M0 0 C5.61 0.33 11.22 0.66 17 1 C17 1.66 17 2.32 17 3 C11.0885256 3.77313045 5.8685408 4.14819277 0 3 C0 2.01 0 1.02 0 0 Z " fill="#4E3538" transform="translate(98,156)"/>
<path d="M0 0 C0.33 0 0.66 0 1 0 C1.07347656 1.16015625 1.07347656 1.16015625 1.1484375 2.34375 C1.58747623 8.46001367 2.30007536 14.10692791 4 20 C3.01 19.34 2.02 18.68 1 18 C0.34 18.99 -0.32 19.98 -1 21 C-1.33 18.69 -1.66 16.38 -2 14 C-1.67 14 -1.34 14 -1 14 C-0.67 9.38 -0.34 4.76 0 0 Z " fill="#BA443B" transform="translate(67,117)"/>
<path d="M0 0 C0.44730469 0.39832031 0.89460937 0.79664063 1.35546875 1.20703125 C4.7681623 4.19768594 8.09355747 6.67725039 12 9 C13.36984198 10.29579647 14.7151049 11.61992749 16 13 C11.36521494 12.51651523 9.12981764 10.75183728 5.75 7.625 C4.87859375 6.83351562 4.0071875 6.04203125 3.109375 5.2265625 C1 3 1 3 0 0 Z " fill="#76322F" transform="translate(6,197)"/>
<path d="M0 0 C0.33 0.99 0.66 1.98 1 3 C-1.60328053 6.64459275 -3.70048197 9.40758592 -8 11 C-8 8 -8 8 -6.25 5.95703125 C-5.5075 5.24933594 -4.765 4.54164063 -4 3.8125 C-2.88625 2.73935547 -2.88625 2.73935547 -1.75 1.64453125 C-1.1725 1.10183594 -0.595 0.55914062 0 0 Z " fill="#D4493C" transform="translate(139,146)"/>
<path d="M0 0 C0.66 0.33 1.32 0.66 2 1 C0.89718873 2.27200971 -0.20730769 3.54255853 -1.3125 4.8125 C-1.92738281 5.52019531 -2.54226562 6.22789063 -3.17578125 6.95703125 C-6.44911047 10.6228796 -6.44911047 10.6228796 -8 12 C-8.66 12 -9.32 12 -10 12 C-8.52278578 8.54798361 -6.56205999 6.35038064 -3.875 3.75 C-3.15054688 3.04359375 -2.42609375 2.3371875 -1.6796875 1.609375 C-1.12539062 1.07828125 -0.57109375 0.5471875 0 0 Z " fill="#693939" transform="translate(84,90)"/>
<path d="M0 0 C2.475 0.495 2.475 0.495 5 1 C5 1.66 5 2.32 5 3 C5.61875 3.2475 6.2375 3.495 6.875 3.75 C9.41465893 5.24391702 10.09909878 6.21539622 11 9 C10.625 11.25 10.625 11.25 10 13 C9.608125 11.906875 9.21625 10.81375 8.8125 9.6875 C7.26935259 6.03538446 5.55108303 4.82106822 2 3 C1.34 2.01 0.68 1.02 0 0 Z " fill="#9D3A37" transform="translate(191,14)"/>
<path d="M0 0 C1.4540625 0.0309375 1.4540625 0.0309375 2.9375 0.0625 C2.9375 0.7225 2.9375 1.3825 2.9375 2.0625 C1.2875 2.3925 -0.3625 2.7225 -2.0625 3.0625 C-2.3925 7.0225 -2.7225 10.9825 -3.0625 15.0625 C-3.3925 15.0625 -3.7225 15.0625 -4.0625 15.0625 C-4.08935412 12.75006208 -4.10882841 10.4375373 -4.125 8.125 C-4.13660156 6.83722656 -4.14820312 5.54945312 -4.16015625 4.22265625 C-4.03220921 0.08228998 -4.03220921 0.08228998 0 0 Z " fill="#B5443C" transform="translate(119.0625,67.9375)"/>
<path d="M0 0 C10.49423077 1.23461538 10.49423077 1.23461538 13.8125 5.125 C14.204375 5.74375 14.59625 6.3625 15 7 C14.45859375 6.71382812 13.9171875 6.42765625 13.359375 6.1328125 C10.70680653 4.8592283 8.02068518 3.86453042 5.25 2.875 C4.26515625 2.52179687 3.2803125 2.16859375 2.265625 1.8046875 C1.51796875 1.53914062 0.7703125 1.27359375 0 1 C0 0.67 0 0.34 0 0 Z " fill="#C13E36" transform="translate(184,5)"/>
<path d="M0 0 C0.66 0.33 1.32 0.66 2 1 C-3.16923077 5.92307692 -3.16923077 5.92307692 -7.375 6.3125 C-8.674375 6.1578125 -8.674375 6.1578125 -10 6 C-6.87511433 3.47605388 -3.68685613 1.60298093 0 0 Z " fill="#6B302E" transform="translate(197,204)"/>
<path d="M0 0 C1.4540625 0.0309375 1.4540625 0.0309375 2.9375 0.0625 C-0.20841933 2.86295623 -2.129564 3.41511589 -6.3125 3.25 C-7.20453125 3.22292969 -8.0965625 3.19585937 -9.015625 3.16796875 C-9.69109375 3.13316406 -10.3665625 3.09835938 -11.0625 3.0625 C-11.0625 2.7325 -11.0625 2.4025 -11.0625 2.0625 C-9.928125 1.918125 -8.79375 1.77375 -7.625 1.625 C-3.97252634 1.04829363 -3.54680005 0.07238367 0 0 Z " fill="#B43B35" transform="translate(191.0625,205.9375)"/>
<path d="M0 0 C0.86625 0.3403125 0.86625 0.3403125 1.75 0.6875 C-0.77956528 3.7791909 -3.47454612 4.59681332 -7.25 5.6875 C-5.99519591 1.92308774 -4.25905546 -0.59153548 0 0 Z " fill="#4A2E2E" transform="translate(19.25,3.3125)"/>
<path d="M0 0 C1.93681161 -0.08107583 3.8745934 -0.13922475 5.8125 -0.1875 C6.89144531 -0.22230469 7.97039062 -0.25710937 9.08203125 -0.29296875 C12 0 12 0 13.88671875 1.51171875 C14.25410156 2.00285156 14.62148437 2.49398438 15 3 C13.7934375 2.7834375 13.7934375 2.7834375 12.5625 2.5625 C8.38640519 1.90311661 4.20401941 1.43908647 0 1 C0 0.67 0 0.34 0 0 Z " fill="#8F3830" transform="translate(180,4)"/>
<path d="M0 0 C2.66355234 -0.39169887 4.39224373 -0.40564529 6.66796875 1.11328125 C8.1510888 2.36389317 9.57954352 3.67864514 11 5 C10.67 5.66 10.34 6.32 10 7 C9.52949219 6.66226562 9.05898437 6.32453125 8.57421875 5.9765625 C7.95160156 5.53054687 7.32898438 5.08453125 6.6875 4.625 C6.07261719 4.18414063 5.45773438 3.74328125 4.82421875 3.2890625 C3.2347608 2.16589093 1.61937829 1.07958553 0 0 Z " fill="#442E2C" transform="translate(189,3)"/>
<path d="M0 0 C0.66 0.33 1.32 0.66 2 1 C2 1.99 2 2.98 2 4 C0.02 4.33 -1.96 4.66 -4 5 C-3.34 4.01 -2.68 3.02 -2 2 C-1.34 2 -0.68 2 0 2 C0 1.34 0 0.68 0 0 Z " fill="#523439" transform="translate(125,151)"/>
</svg>
